<svg xmlns="http://www.w3.org/2000/svg" viewBox="0 0 687.39 991.18"><defs><style>.cls-1{fill:#060505;}.cls-2{fill:#e03730;}.cls-3{fill:#f4e52f;}.cls-4{fill:#be502f;}.cls-5{fill:#b89673;}.cls-6{fill:#fefefe;}</style></defs><title>Asset 1</title><g id="Layer_2" data-name="Layer 2"><g id="Layer_1-2" data-name="Layer 1"><path class="cls-1" d="M344.11.13q169,0,338-.13c4.63,0,5.25,1.35,5.25,5.47q-.15,329.21.07,658.42c0,24-6,45.35-21.43,63.8-13.69,16.41-30.21,29.56-48,41.29-34.05,22.45-71.47,38-108.8,53.76-3.94,1.67-9.58,1.82-11.52,5s-.7,8.39-.71,12.71c0,35.66.45,71.33-.17,107C496.38,970,484.9,982.81,463.45,990c-3.51,1.17-7.52,1.13-11.31,1.13q-109,.1-218,0c-22.27-.06-44.37-18-44.2-43.56.25-38.49,0-77,.12-115.48,0-3.59-1.05-5.14-4.41-6.45-31-12.14-61.51-25.4-90.75-41.31-19.28-10.5-37.57-22.52-54.24-37.11C27.8,735.87,17,723.32,8.84,708.34c-6.23-11.48-8.62-24-8.63-36.8Q0,338.33,0,5.13C0,.92,1.05,0,5.15,0Q174.64.21,344.11.13ZM362,957.91c0,.62-.11,1.24-.16,1.86-2,3.72-.83,5.23,3.16,4.17,1.65-.44,3.58-.3,5-1.68,6.39-3.07,11.43-12.91,9.71-19.42-.65-2.5-1.57-4.93-4.37-6.23-6.44-3-11.93.62-13.2,8.92C361.1,949.65,361.57,953.78,362,957.91Zm81.93-12.49c-1.51,5.61-.42,11.31-.58,17,0,1.4.95,2,2.38,1.56,11.55-2,16.14-8,15.85-20.48-.07-3.33-.91-6-4.28-7.05s-6.58-2-9.39,1.7A21.07,21.07,0,0,0,443.89,945.42Zm-58.23-17.06a62,62,0,0,0,.74,6.43c2,8.91,4.35,17.6,12.15,23.65,7.39,5.74,16,6.55,24.53,5.34,6.23-.89,12.39-3.28,12.94-11.64.26-3.89,1.81-7.7,2.9-12-4.64.62-9,1.46-13.42,1.75-8.88.6-15.39-1.12-18.12-9.91A82.57,82.57,0,0,1,404,903a16.39,16.39,0,0,1,3.27-9.28,11.19,11.19,0,0,1,12.58-3.35c4.19,1.47,5,4.89,5,8.77,0,1.59-.49,3.28.8,5.18,3.78-2.69,7.48-5.4,11.28-7.95,1.24-.84,1.14-1.92,1.14-3.05,0-6.83,0-13.66,0-20.49,0-1.48-.13-2.58-2.06-2.59-9.3,0-18.91-.51-27.43,3.37-14.47,6.59-23.49,17.56-23,34.5A55.47,55.47,0,0,0,385.66,928.36ZM487.11,100.05l-.06-53.57c6.16-4.36,5.8-11.52,8.31-18.06-9.65,0-18.63.07-27.61,0-2,0-2.56,1-2.94,2.56-.87,3.53-1.86,7-2.59,10.6-.16.81-1.32,2.4.78,2.71,5.77.83,5,5.6,5.07,9.24.25,15,.11,30,.1,45,0,1,.26,2.57-.24,2.9-4.86,3.18-3.51,8.88-5.49,13.21-1.33,2.88-1.19,4.91,3.38,4.81,15-.34,30-.13,45-.13q36.51,0,73,0c1.85,0,4.23.86,5-1.91,1.15-4,2.18-8,3.29-11.94.4-1.45.53-2.67-1.57-2.53-3.73.26-4.49-2.1-4.45-5.1.17-15-1.51-29.87-1-44.84.09-2.54,0-6,1.38-7.11,4.73-3.73,3.45-9.37,5.46-13.88.85-1.91.88-3.73-2.48-3.61-7.32.26-14.66.06-22,.09-1.27,0-2.87-.36-3.37,1.38-1.23,4.29-2.38,8.6-3.49,12.92a1.23,1.23,0,0,0,1,1.47c5.24,1.67,5.44,6.19,5.51,10.46.16,11.33-.7,22.73.32,34,.81,9-3.36,16.14-6.44,23.88V83.78c-5,1.75-8.61,5-12.74,7.31-2.39,1.35-.94,4-1.66,6-1.32,3.65-4.24,5.6-7.39,5.42-3.42-.2-2.81-3.89-2.81-6.46-.05-13.17-.19-26.34.06-39.5.09-4.66-2.38-10.56,4.5-13.06.29-.1.35-.88.47-1.36.88-3.54,1.76-7.07,2.61-10.61.46-1.91.25-3.12-2.27-3.09q-12.25.15-24.5,0c-2,0-2.65,1.16-3,2.61-1,3.84-1.88,7.71-2.76,11.58-.17.76-1.14,1.81.85,1.91,4.88.24,5.6,3.71,5.59,7.65,0,12.5-.62,25,.21,37.49.53,8.08-2.74,14.4-6.44,21.06V82.57c-5.75,5.62-14.92,5.49-15.14,15.35-.06,2.86-3.35,4-5.88,4.79C488.61,103.39,487.89,101.52,487.11,100.05ZM146.65,47.45c1.14,4.52-.87,9.32,1.17,13.76,1,12-.82,23.87-.57,35.78.1,4.53-2.94,6.81-4.86,10.55,1.63-3.31.36-4.67-2.26-5.91-1-.5-1.78-2.5-1.9-3.89-.54-6.57-3.15-12.64-4.22-19.13-2.61-16-6.14-31.79-9.29-47.68-.23-1.13-.26-2.34-1.7-2.69-1-.24-16.34,5.2-16.68,6.06a23.52,23.52,0,0,0-.33,2.44c-4.64,17.72-7.06,36-12.87,53.43-1.19,3.59-1,8-3.15,10.82-4.09,5.49-4.14,12-6.74,18.29,8.33,0,16.15,0,24,0,1.49,0,2.86-.39,2.87-2,0-5,3.53-9,3.69-13.93a4,4,0,0,0-1-.29c-6.27.34-7.1-.64-7.71-6-.68-6.09,3.32-4.65,6.57-4.71h1.5c5.22,0,8.25,4.65,5,8.77-3.57,4.5-3.66,9.77-5.44,14.64-1.1,3-.16,3.68,2.79,3.64,9.86-.13,19.72,0,29.58,0q55,0,110,0c13.36,0,13.36,0,16.08-13a7.78,7.78,0,0,1,.36-1.44c.42-1,.1-1.77-.87-1.84-6-.39-5.33-5.18-5.38-8.86-.22-14.66-.11-29.32-.09-44,0-1.47-.46-3.17.74-4.3C269.89,42,269,36.41,271,31.79c1-2.36.22-3.51-2.66-3.43-6.82.19-13.66.09-20.49.07-1.82,0-3.84-.41-4.39,2-1,4.48-3.28,8.64-3.38,13.33,0,.18,1.16.34,1.75.57a6.51,6.51,0,0,1,4.3,6.14c.39,7.12.87,14.25.86,21.37,0,7.63-1.17,15.29-.66,22.86.49,7.21-4.45,12.11-6.46,18.35V83.27c-4.42,2.72-8.14,5.15-12,7.35a3.28,3.28,0,0,0-1.78,3.69c.64,4.61-2.26,6.53-5.9,8-2.81,1.11-3.89.19-4.07-2.8a443.25,443.25,0,0,1,.08-51.29c0-.8.06-2,.54-2.32,5.64-3.24,4.23-9.53,6.25-14.31.88-2.06.31-3.32-2.44-3.2-5,.2-10,.07-15,.05-10.94,0-10.93,0-14,10.54-.78,2.66-2.34,5.31,2.35,6.24,2.68.54,2.58,3.48,2.84,5.78,1.2,10.8.06,21.65.75,32.44.66,10.35-.84,20-6.63,29.21V83.75c-5.33,1.63-9.14,4.9-13.3,7.43-2.41,1.46-.78,4.34-1.3,6.51-.92,3.8-4.3,4.75-7.25,4.83-3.13.08-2.23-3.19-2.25-5.12-.11-10.16-.53-20.36.09-30.48.51-8.44-3-17.36,3.84-25.33,2.56-3,2.29-8.43,3.41-13.17H159.76c-15.56,0-15.56,0-19.16,16C143.55,43.65,145.47,44.92,146.65,47.45ZM38.13,674.07A108.53,108.53,0,0,0,53,700.93a132.1,132.1,0,0,0,30.6,29.17c6.64,4.62,12.86,9.8,20.07,13.63,11.93,6.32,23.73,12.87,35.88,18.81,14.67,7.18,29.43,14.1,44.74,19.81Q212,792.67,239.65,803c17.21,6.41,34.45,12.74,51.65,19.19s34.06,13.73,48.92,24.8c2.93,2.18,5.08,2.17,7.92-.13,14.21-11.57,31-18.23,47.9-24.64,19.31-7.35,38.82-14.18,58.19-21.38,12.41-4.61,24.62-9.78,37.11-14.17q23-8.07,45.05-18.34c13.21-6.15,26.24-12.7,38.88-20,24.48-14.13,47.81-29.48,63.56-53.93,7.14-11.08,12.14-22.84,13.36-36.06,1.28-2,.66-4.22.66-6.34q.06-161,0-322,0-90.75,0-181.5c0-4-.32-6.33-5.54-6.31-47,.21-94,.13-141,.13H41.89c-7.48,0-7.59,0-7.59,7.41q0,252.5,0,505c0,3,.1,6,1.66,8.68a1,1,0,0,0,.17.85A17.28,17.28,0,0,0,38.13,674.07ZM283.84,951.14c0,3.48.11,6.62,0,9.75s1.3,3.57,4,3c10.46-2.36,16.26-10.87,14.34-21.36-.61-3.36-2.44-5.47-6-6.55-3.37-1-5.6-.21-8,2.09-2.62,2.47-3.38,5.76-4.66,9.53-11.85-8.43-11.68-24.28-22.49-32.64,9.23-4.29,11.45-7.55,13.2-17.31a24.39,24.39,0,0,0-.15-9.86c-2.6-11.31-8-18.35-20.07-16.39a104.24,104.24,0,0,1-16.92,1c-11.54,0-11.54,0-13.83,11a8.62,8.62,0,0,0-.25,2.46c.08.93-.08,2,1.09,2.57,5.47,2.44,4.73,7.71,4.85,12.06.35,12.82.08,25.65.16,38.48,0,2.38-.05,5.14-1.49,6.61-3.84,3.92-3,9.09-4.49,13.61-.66,2,.23,3.29,2.85,3.22q10.74-.25,21.49,0c2.57.06,3.57-1,3.89-3.32a32.36,32.36,0,0,1,1-4.33c1.11-4.17,4.17-8.76-2.87-10.91a4.24,4.24,0,0,1-2.2-3.14c-.31-4.64-.57-9.34.61-14,5.27,10.62,10.17,21.29,14.82,32.06,1.24,2.89,2.87,3.74,6,3.7,10.91-.15,10.91,0,13.86-10.84C282.52,951.52,282.75,951.5,283.84,951.14Zm6-878.13c6.95,15.09,16,28.73,21.82,43.9.55,1.43.71,3.94,2.78,3.35a133.64,133.64,0,0,0,13.49-4.94c1.26-.51,1-2.06.85-3.16-1.49-13-.61-26-.6-38.93,0-11.23-1.74-22.65,3.56-33.49,1.57-3.2,4.17-8.14,2-10.63s-7.26-.65-11.07-.67c-15.63-.06-15.63,0-19.13,16.05,5.79-1.67,8.95,1.11,10.42,6.26,2.31,8.14,2.63,16.42,1.8,25.8-8.24-13.07-14.37-26.15-21-38.85-3.87-7.44-7.63-10.71-15.56-9.3a7.86,7.86,0,0,1-2,0c-1.58-.12-2.85.69-2.92,2.1-.28,5.83-7,11.36.21,17.73,3.13,2.74,2.38,8.44,2.48,12.84.26,11.33,0,22.66.16,34,0,2.41-.14,5.11-1.41,6.69-3.59,4.46-3.1,10-5,14.89-.86,2.22-.06,2.61,1.86,2.6,4.83,0,9.66,0,14.5,0,11.51,0,11.34,0,14.32-11,1-3.63.26-5.18-3.4-5.31-5.54-.19-8.11-3.24-8.16-8.56C289.75,87.27,289.81,80.14,289.81,73Zm356.67-5.54H643c-12.4,0-12.35,0-15.05,12.2-.75,3.41-3,7.12,3.53,6.88,1.94-.07,3,2.09,3.62,3.74.92,2.69.35,5.52.14,8.35-.29,3.7-2.16,3.82-5,3.29-7.67-1.46-11.91-6.27-14.2-13.51-2.9-9.17-1-18.37-.82-27.57.29-13,3.63-16.06,16.42-15.79,4.17.09,6.14,1.88,6.5,5.82.16,1.82.19,3.66.42,5.47.18,1.42-.93,3.32.66,4.16s2.59-1.06,3.93-1.53c9.28-3.28,12-9.55,11.28-19.35-1-13.3-.26-13.11-13.79-13.51-4.78-.14-9,2-13.58,2-10.52,0-19.38,4.86-24.36,13.11-11.43,19-11.65,39.55-4.11,60.13,3.31,9,9.62,15.3,19.24,17.89,11.36,3.06,22.27,0,33.28-2,2.17-.39,1.78-2.09,1.78-3.52,0-6.16-.34-12.36.15-18.49.27-3.34-1-8,4.41-9.28.66-.15,1.1-1.94,1.34-3,.87-4.05,1.33-8.21,2.48-12.17.91-3.09-.34-3.36-2.8-3.3C654.48,67.56,650.48,67.48,646.48,67.47ZM69.12,70.56c2.13-3,6.2-3.41,8-6.46,6.53-10.92,4.22-23.19-4.43-32.28a8.66,8.66,0,0,0-5.26-2.57c-11.25-1.33-22.55-.7-33.83-.84-1.22,0-2.46.06-2.83,1.42-1.26,4.61-2.43,9.25-3.56,13.89a1.4,1.4,0,0,0,.64,1.21c6.64,2.25,5.88,8.23,6,13.14.39,12.64.09,25.29.15,37.94,0,2,.16,4.37-1.08,5.74-3.68,4.08-3.56,9.32-5.13,14-1.05,3.17,0,3.58,2.75,3.55,9.16-.11,18.31,0,27.47-.09,11.42-.16,20.09-4.45,24.38-15.91,1.17-3.12.71-6.18,1.33-9.24C86.05,83,80,73.49,69.12,70.56Zm391,1.64c.74-3.84-.72-8.37-1-13A40.52,40.52,0,0,0,447.57,33c-5.15-5.41-12.43-6.63-19.23-6.4-9.89.33-17,6.53-22.54,14.38C395.72,55.34,392,71.4,395.1,88.51c1.82,10.08,5.63,19.64,14.31,26.42,10.42,8.12,23.55,7.58,33.41-1.29C455,102.73,460.42,89.17,460.09,72.2Zm-115.27,828c3.65-1.2,6.75-2.37,9.94-3.2,3-.79,4.34-2.3,4.16-5.6-.28-5.14-.26-10.33-.05-15.48.14-3.27-1-4.35-4.26-4.3-11.16.18-22.32.13-33.48.1-13.76,0-13.76-.07-16.51,13.34-.07.33-.22.63-.31,1-.36,1.34-.2,2.4,1.53,2.22,4.76-.5,5,2.6,5,6q-.37,23.94-.74,47.89c0,1,.08,2.26-.47,2.86-3.71,4.07-3.31,9.49-4.94,14.23-.89,2.59-.21,3.19,2.29,3.13,4.66-.11,9.33,0,14,0,11.13,0,11.14,0,13.89-10.64.66-2.55,2.33-5.54-2.59-5.68-1.3,0-1.45-1.61-2.06-2.56-2.37-3.73-.11-7.93-1.16-11.86-.2-.74-1.12-4.41,2.22-4.3,2.4.08,3.1,2.06,3.81,4,.91,2.47-.34,5.25,1.06,7.77,3.29-1.26,6.33-2.58,9.48-3.56a3.14,3.14,0,0,0,2.59-3.56c-.07-10.15,0-20.29,0-31.46-5.08,3.08-11.94,1.09-14,8.46-.54,1.93-2.92,1.09-4.49,1.07-2.14,0-1.44-1.82-1.54-3-.45-5.34,2.62-10.2,2.15-15.56-.08-.93.77-1.5,1.55-1.75,3.57-1.11,7.43-1.49,10.71,0,2.75,1.25,2.37,4.78,2.58,7.55A20.65,20.65,0,0,1,344.82,900.19ZM391.1,95.63c-5.45,2.77-10.53,3.06-15.31,3.23-6,.23-12-1-15.44-7.47-6.43-11.89-4.68-24.42-3.57-36.92a8.44,8.44,0,0,1,2.7-4.66,11.33,11.33,0,0,1,10.95-3.05c3.76.91,5.1,3.8,5.64,7.3.34,2.23.83,4.44,1.33,7.1a51.74,51.74,0,0,1,5.53-3.73c5.59-2.8,8.36-6.73,7.33-13.38-.68-4.39-.2-9-.07-13.46.07-2.35-.42-3.18-3.14-3.62a49.88,49.88,0,0,0-15.24.22C362.42,28.59,353.74,32,347.23,39c-8.36,9.08-11.39,20.42-10.93,32.43.35,9,.95,18.31,3.34,27,2.66,9.61,7.54,18.32,18.81,21.23,8.89,2.29,17.07-.25,25.43-2.19,1.85-.43,2.27-2.1,2.67-3.82C387.88,108,389.37,102.45,391.1,95.63Z"/><path class="cls-2" d="M36.12,664.28a1,1,0,0,1-.17-.85c0-1.17.16-2.33.16-3.49q0-254,0-508c0-6.93.78-7.72,7.77-7.72H639.81a13.51,13.51,0,0,1,3.49.09c8.93,2.47,8.75-.79,8.75,10.06q0,248.49,0,497c0,2.33.1,4.66.15,7-1.22,13.22-6.22,25-13.36,36.06-15.75,24.45-39.08,39.8-63.56,53.93-12.64,7.3-25.67,13.85-38.88,20q-22,10.27-45.05,18.34c-12.49,4.39-24.7,9.56-37.11,14.17-19.37,7.2-38.88,14-58.19,21.38-16.87,6.41-33.69,13.07-47.9,24.64-2.84,2.3-5,2.31-7.92.13-14.86-11.07-31.71-18.33-48.92-24.8S256.86,809.42,239.65,803q-27.71-10.31-55.38-20.66c-15.31-5.71-30.07-12.63-44.74-19.81-12.15-5.94-24-12.49-35.88-18.81-7.21-3.83-13.43-9-20.07-13.63A132.1,132.1,0,0,1,53,700.93a108.53,108.53,0,0,1-14.85-26.86C37.25,670.85,40.11,666.86,36.12,664.28ZM605.94,702.1c4.6-2.7,8.8-5.77,10.19-11.35,3-3.31,6-6.57,8.14-10.51,4.68-1.53,3.81-5.42,3.82-8.94l.21-1.24c4.52-4.24,5.41-9.73,5.41-15.57q0-114.71,0-229.41,0-42-.07-84c0-1.48,1.44-3.77-1.41-4.49-2.6-.83-5.28-.49-7.93-.49q-132.94,0-265.88,0c-1.49,0-3,.08-4.49,0-1.64-.08-1.81,1.08-2.05,2.22-3,.81-1.68,3.29-1.69,5-.09,32.38-.19,64.76.06,97.14,0,5.08-1.3,6.92-6.24,5.83-3.19-1.76-7.94-1.29-7.92-7.17q.24-56.49,0-113c0-4.92,1.31-5.94,6.05-5.93q140.24.21,280.46.2c4.34,0,5.71-1.06,5.7-5.53q-.24-71.25,0-142.48c0-4.11-1.15-5.36-5.34-5.36q-278.72.15-557.44,0c-5.07,0-6.5,1.54-6.48,6.52.19,45.83.16,91.66.16,137.48q0,163,.07,326c0,10.75-.47,21.72,3.82,32,5.91,14.14,15.26,25.74,27,35.43,1.65,4.94,7.37,9.44,12.18,9.59l.09.06c-.07,2.27.91,2.86,2.91,1.82a1.27,1.27,0,0,1,.91.33c1.83,3.92,5,5.74,9.23,5.79,7.19,2.92,13.51,7.47,20.38,11a602.3,602.3,0,0,0,73.49,32.15C225,770.81,240.45,777,256.1,782.72c12.61,4.62,25.38,8.77,37.94,13.51,13.14,5,25.93,10.75,38.61,16.81,1.31.62,3.05,2.3,3.64-.8,3.18-1.25,1.71-4,1.72-6q.14-90.91.09-181.84l1.68-.29c10.33.54,10.33.54,10.33,11.3q0,85.67.07,171.33c0,1.86-1.41,4.51,1.75,5.49,1.87,2,3.34,0,4.75-.65,17.07-7.77,34.41-14.9,52.12-21C444.71,778,480.88,766.36,516.12,752c26.92-10.95,53-23.45,77.11-39.8,6.82-.15,9.47-5.53,12.72-10.15Z"/><path class="cls-3" d="M146.65,47.45c-1.18-2.53-3.1-3.8-6.05-3.05,3.6-16,3.6-16,19.16-16h14.32c-1.12,4.74-.85,10.16-3.41,13.17-6.79,8-3.33,16.89-3.84,25.33-.62,10.12-.2,20.32-.09,30.48,0,1.93-.88,5.2,2.25,5.12,2.95-.08,6.33-1,7.25-4.83.52-2.17-1.11-5,1.3-6.51,4.16-2.53,8-5.8,13.3-7.43v28.87c5.79-9.19,7.29-18.86,6.63-29.21-.69-10.79.45-21.64-.75-32.44-.26-2.3-.16-5.24-2.84-5.78-4.69-.93-3.13-3.58-2.35-6.24,3.08-10.57,3.07-10.57,14-10.54,5,0,10,.15,15-.05,2.75-.12,3.32,1.14,2.44,3.2-2,4.78-.61,11.07-6.25,14.31-.48.27-.5,1.52-.54,2.32a443.25,443.25,0,0,0-.08,51.29c.18,3,1.26,3.91,4.07,2.8,3.64-1.44,6.54-3.36,5.9-8a3.28,3.28,0,0,1,1.78-3.69c3.86-2.2,7.58-4.63,12-7.35v29.82c2-6.24,7-11.14,6.46-18.35-.51-7.57.65-15.23.66-22.86,0-7.12-.47-14.25-.86-21.37a6.51,6.51,0,0,0-4.3-6.14c-.59-.23-1.75-.39-1.75-.57.1-4.69,2.36-8.85,3.38-13.33.55-2.45,2.57-2,4.39-2,6.83,0,13.67.12,20.49-.07,2.88-.08,3.67,1.07,2.66,3.43-2,4.62-1.09,10.25-5.19,14.11-1.2,1.13-.74,2.83-.74,4.3,0,14.66-.13,29.32.09,44,.05,3.68-.66,8.47,5.38,8.86,1,.07,1.29.86.87,1.84a7.78,7.78,0,0,0-.36,1.44c-2.72,12.94-2.72,13-16.08,13q-55,0-109.95,0c-9.86,0-19.72-.09-29.58,0-3,0-3.89-.64-2.79-3.64,1.78-4.87,1.87-10.14,5.44-14.64,3.26-4.12.23-8.73-5-8.77h-1.5c-3.25.06-7.25-1.38-6.57,4.71.61,5.41,1.44,6.39,7.71,6a4,4,0,0,1,1,.29c-.16,4.91-3.65,9-3.69,13.93,0,1.65-1.38,2-2.87,2-7.81,0-15.63,0-24,0C85.85,113,85.9,106.48,90,101c2.1-2.82,2-7.23,3.15-10.82C99,72.72,101.37,54.46,106,36.74a23.52,23.52,0,0,1,.33-2.44c.34-.86,15.72-6.3,16.68-6.06,1.44.35,1.47,1.56,1.7,2.69,3.15,15.89,6.68,31.71,9.29,47.68,1.07,6.49,3.68,12.56,4.22,19.13.12,1.39.86,3.39,1.9,3.89,2.62,1.24,3.89,2.6,2.26,5.91,1.92-3.74,5-6,4.86-10.55-.25-11.91,1.52-23.82.58-35.78,0-3.75.15-7.5,0-11.25C147.86,49.11,147.08,48.29,146.65,47.45ZM112.48,60.08l-.75.16-3.87,13.22c-.27.91-1,2.29.2,2.55a21,21,0,0,0,6.39.25c1.6-.16.69-1.61.56-2.4C114.23,69.26,113.34,64.67,112.48,60.08Z"/><path class="cls-3" d="M487.11,100.05c.78,1.47,1.5,3.34,3.6,2.66,2.53-.82,5.82-1.93,5.88-4.79.22-9.86,9.39-9.73,15.14-15.35v28.07c3.7-6.66,7-13,6.44-21.06-.83-12.45-.22-25-.21-37.49,0-3.94-.71-7.41-5.59-7.65-2-.1-1-1.15-.85-1.91.88-3.87,1.76-7.74,2.76-11.58.38-1.45,1-2.64,3-2.61q12.26.19,24.5,0c2.52,0,2.73,1.18,2.27,3.09-.85,3.54-1.73,7.07-2.61,10.61-.12.48-.18,1.26-.47,1.36-6.88,2.5-4.41,8.4-4.5,13.06-.25,13.16-.11,26.33-.06,39.5,0,2.57-.61,6.26,2.81,6.46,3.15.18,6.07-1.77,7.39-5.42.72-2-.73-4.6,1.66-6,4.13-2.33,7.78-5.56,12.74-7.31V112.5c3.08-7.74,7.25-14.83,6.44-23.88-1-11.24-.16-22.64-.32-34-.07-4.27-.27-8.79-5.51-10.46a1.23,1.23,0,0,1-1-1.47c1.11-4.32,2.26-8.63,3.49-12.92.5-1.74,2.1-1.37,3.37-1.38,7.33,0,14.67.17,22-.09,3.36-.12,3.33,1.7,2.48,3.61-2,4.51-.73,10.15-5.46,13.88-1.37,1.09-1.29,4.57-1.38,7.11-.54,15,1.14,29.88,1,44.84,0,3,.72,5.36,4.45,5.1,2.1-.14,2,1.08,1.57,2.53-1.11,4-2.14,8-3.29,11.94-.8,2.77-3.18,1.9-5,1.91q-36.49.06-73,0c-15,0-30-.21-45,.13-4.57.1-4.71-1.93-3.38-4.81,2-4.33.63-10,5.49-13.21.5-.33.24-1.9.24-2.9,0-15,.15-30-.1-45-.06-3.64.7-8.41-5.07-9.24-2.1-.31-.94-1.9-.78-2.71.73-3.56,1.72-7.07,2.59-10.6.38-1.57.93-2.59,2.94-2.56,9,.11,18,0,27.61,0-2.51,6.54-2.15,13.7-8.3,18.06a3.23,3.23,0,0,0-.83,2.74q0,23.81,0,47.61C486.26,98,486.08,99.18,487.11,100.05Z"/><path class="cls-3" d="M283.84,951.14c-1.09.36-1.32.38-1.34.45-2.95,10.83-2.95,10.69-13.86,10.84-3.09,0-4.72-.81-6-3.7-4.65-10.77-9.55-21.44-14.82-32.06-1.18,4.69-.92,9.39-.61,14a4.24,4.24,0,0,0,2.2,3.14c7,2.15,4,6.74,2.87,10.91a32.36,32.36,0,0,0-1,4.33c-.32,2.34-1.32,3.38-3.89,3.32q-10.74-.24-21.49,0c-2.62.07-3.51-1.18-2.85-3.22,1.47-4.52.65-9.69,4.49-13.61,1.44-1.47,1.51-4.23,1.49-6.61-.08-12.83.19-25.66-.16-38.48-.12-4.35.62-9.62-4.85-12.06-1.17-.53-1-1.64-1.09-2.57a8.62,8.62,0,0,1,.25-2.46c2.29-11,2.29-11,13.83-11a104.24,104.24,0,0,0,16.92-1c12.11-2,17.47,5.08,20.07,16.39a24.39,24.39,0,0,1,.15,9.86c-1.75,9.76-4,13-13.2,17.31,10.81,8.36,10.64,24.21,22.49,32.64,1.28-3.77,2-7.06,4.66-9.53,2.44-2.3,4.67-3.12,8-2.09,3.53,1.08,5.36,3.19,6,6.55,1.92,10.49-3.88,19-14.34,21.36-2.69.61-4.13.18-4-3S283.84,954.62,283.84,951.14ZM247.14,898H247a21,21,0,0,0,.05,4c.25,1.21-1.16,3.28,1.12,3.51,2.07.21,4.69.26,5.5-2.29,1.19-3.75,2.32-7.64.86-11.61-.59-1.58-.76-3.61-3.46-3.36-2.52.24-3.53,1.87-3.89,3.83A32.77,32.77,0,0,0,247.14,898Z"/><path class="cls-3" d="M289.81,73c0,7.13-.06,14.26,0,21.39.05,5.32,2.62,8.37,8.16,8.56,3.66.13,4.38,1.68,3.4,5.31-3,11-2.81,11-14.32,11-4.84,0-9.67,0-14.5,0-1.92,0-2.72-.38-1.86-2.6,1.87-4.87,1.38-10.43,5-14.89,1.27-1.58,1.43-4.28,1.41-6.69-.12-11.33.1-22.66-.16-34-.1-4.4.65-10.1-2.48-12.84-7.24-6.37-.49-11.9-.21-17.73.07-1.41,1.34-2.22,2.92-2.1a7.86,7.86,0,0,0,2,0c7.93-1.41,11.69,1.86,15.56,9.3,6.62,12.7,12.75,25.78,21,38.85.83-9.38.51-17.66-1.8-25.8-1.47-5.15-4.63-7.93-10.42-6.26,3.5-16.06,3.5-16.11,19.13-16,3.81,0,9-1.69,11.07.67s-.41,7.43-2,10.63c-5.3,10.84-3.56,22.26-3.56,33.49,0,13-.89,26,.6,38.93.13,1.1.41,2.65-.85,3.16a133.64,133.64,0,0,1-13.49,4.94c-2.07.59-2.23-1.92-2.78-3.35C305.8,101.74,296.76,88.1,289.81,73Z"/><path class="cls-3" d="M646.48,67.48c4,0,8,.08,12,0,2.46-.06,3.71.21,2.8,3.3-1.15,4-1.61,8.12-2.48,12.17-.24,1.09-.68,2.88-1.34,3-5.44,1.28-4.14,5.94-4.41,9.28-.49,6.13-.12,12.33-.15,18.49,0,1.43.39,3.13-1.78,3.52-11,2-21.92,5.09-33.28,2-9.62-2.59-15.93-8.85-19.24-17.89-7.54-20.58-7.32-41.16,4.11-60.13,5-8.25,13.84-13.07,24.36-13.11,4.58,0,8.8-2.17,13.58-2,13.53.4,12.78.21,13.79,13.51.75,9.8-2,16.07-11.28,19.35-1.34.47-2.46,2.31-3.93,1.53s-.48-2.74-.66-4.16c-.23-1.81-.26-3.65-.42-5.47-.36-3.94-2.33-5.73-6.5-5.82-12.79-.27-16.13,2.81-16.42,15.79-.2,9.2-2.08,18.4.82,27.57,2.29,7.24,6.53,12,14.2,13.51,2.82.53,4.69.41,5-3.29.21-2.83.78-5.66-.14-8.35-.57-1.65-1.68-3.81-3.62-3.74-6.51.24-4.28-3.47-3.53-6.88,2.7-12.18,2.65-12.2,15.05-12.2Z"/><path class="cls-3" d="M69.12,70.56C80,73.49,86.05,83,83.77,94.1c-.62,3.06-.16,6.12-1.33,9.24-4.29,11.46-13,15.75-24.38,15.91-9.16.13-18.31,0-27.47.09-2.76,0-3.8-.38-2.75-3.55,1.57-4.72,1.45-10,5.13-14,1.24-1.37,1.09-3.7,1.08-5.74-.06-12.65.24-25.3-.15-37.94-.15-4.91.61-10.89-6-13.14a1.4,1.4,0,0,1-.64-1.21c1.13-4.64,2.3-9.28,3.56-13.89.37-1.36,1.61-1.44,2.83-1.42,11.28.14,22.58-.49,33.83.84a8.66,8.66,0,0,1,5.26,2.57c8.65,9.09,11,21.36,4.43,32.28C75.32,67.15,71.25,67.6,69.12,70.56ZM52.54,91.24h0a23.61,23.61,0,0,1,0,3.47c-.72,4.83,2.59,6.89,6.19,7.23,3.94.38,4.7-3.52,5.18-6.56s-.45-6.17-1.62-9.07c-1.57-3.88-5-3.29-8-2.9s-1.17,3.21-1.67,4.87A10.82,10.82,0,0,0,52.54,91.24ZM52,55.66a26.45,26.45,0,0,0,0,4.08c.29,1.5-1,3.84,1,4.38A5.7,5.7,0,0,0,59.23,62,12.93,12.93,0,0,0,61,58.53a23.75,23.75,0,0,0,.84-11.78c-.4-2.38-.92-4.12-3.84-4.1-2.71,0-4.28,1-5,3.75A32.67,32.67,0,0,0,52,55.66Z"/><path class="cls-3" d="M460.09,72.2c.33,17-5.14,30.53-17.27,41.44-9.86,8.87-23,9.41-33.41,1.29-8.68-6.78-12.49-16.34-14.31-26.42C392,71.4,395.72,55.34,405.8,41c5.52-7.85,12.65-14,22.54-14.38,6.8-.23,14.08,1,19.23,6.4a40.52,40.52,0,0,1,11.55,26.19C459.37,63.83,460.83,68.36,460.09,72.2Zm-44.85,9.7c.36,2.1.89,4.19,1,6.31.42,6.27,4.15,10.17,10.74,10.66,3.54.26,8.39.8,10.49-3.52a24.57,24.57,0,0,0,2.62-9A125.91,125.91,0,0,0,439,58.66c-.95-6.16-6.48-11.28-12-11.38-7.29-.12-9.41,1.71-11.22,9.69-.52,6-1.2,11.94-1.48,17.93C414.21,77.2,413.33,79.79,415.24,81.9Z"/><path class="cls-3" d="M344.82,900.19a20.65,20.65,0,0,0,.3-2.91c-.21-2.77.17-6.3-2.58-7.55-3.28-1.49-7.14-1.11-10.71,0-.78.25-1.63.82-1.55,1.75.47,5.36-2.6,10.22-2.15,15.56.1,1.18-.6,3,1.54,3,1.57,0,3.95.86,4.49-1.07,2-7.37,8.9-5.38,14-8.46,0,11.17,0,21.31,0,31.46a3.14,3.14,0,0,1-2.59,3.56c-3.15,1-6.19,2.3-9.48,3.56-1.4-2.52-.15-5.3-1.06-7.77-.71-2-1.41-3.93-3.81-4-3.34-.11-2.42,3.56-2.22,4.3,1.05,3.93-1.21,8.13,1.16,11.86.61.95.76,2.53,2.06,2.56,4.92.14,3.25,3.13,2.59,5.68-2.75,10.64-2.76,10.64-13.89,10.64-4.66,0-9.33-.08-14,0-2.5.06-3.18-.54-2.29-3.13,1.63-4.74,1.23-10.16,4.94-14.23.55-.6.45-1.88.47-2.86q.39-23.94.74-47.89c.05-3.44-.2-6.54-5-6-1.73.18-1.89-.88-1.53-2.22.09-.33.24-.63.31-1,2.75-13.41,2.75-13.38,16.51-13.34,11.16,0,22.32.08,33.48-.1,3.29-.05,4.4,1,4.26,4.3-.21,5.15-.23,10.34.05,15.48.18,3.3-1.14,4.81-4.16,5.6C351.57,897.82,348.47,899,344.82,900.19Z"/><path class="cls-3" d="M391.1,95.63c-1.73,6.82-3.22,12.4-4.55,18-.4,1.72-.82,3.39-2.67,3.82-8.36,1.94-16.54,4.48-25.43,2.19-11.27-2.91-16.15-11.62-18.81-21.23-2.39-8.65-3-17.92-3.34-27-.46-12,2.57-23.35,10.93-32.43,6.51-7.07,15.19-10.45,24.58-11.85A49.88,49.88,0,0,1,387.05,27c2.72.44,3.21,1.27,3.14,3.62-.13,4.49-.61,9.07.07,13.46,1,6.65-1.74,10.58-7.33,13.38a51.74,51.74,0,0,0-5.53,3.73c-.5-2.66-1-4.87-1.33-7.1-.54-3.5-1.88-6.39-5.64-7.3a11.33,11.33,0,0,0-10.95,3.05,8.44,8.44,0,0,0-2.7,4.66c-1.11,12.5-2.86,25,3.57,36.92,3.49,6.45,9.44,7.7,15.44,7.47C380.57,98.69,385.65,98.4,391.1,95.63Z"/><path class="cls-3" d="M385.66,908.09c-.49-16.94,8.53-27.91,23-34.5,8.52-3.88,18.13-3.39,27.43-3.37,1.93,0,2.07,1.11,2.06,2.59,0,6.83,0,13.66,0,20.49,0,1.13.1,2.21-1.14,3.05-3.8,2.55-7.5,5.26-11.28,7.95-1.29-1.9-.78-3.59-.8-5.18,0-3.88-.82-7.3-5-8.77a11.19,11.19,0,0,0-12.58,3.35A16.39,16.39,0,0,0,404,903a82.57,82.57,0,0,0,3.34,29c2.73,8.79,9.24,10.51,18.12,9.91,4.41-.29,8.78-1.13,13.42-1.75-1.09,4.31-2.64,8.12-2.9,12-.55,8.36-6.71,10.75-12.94,11.64-8.56,1.21-17.14.4-24.53-5.34-7.8-6.05-10.15-14.74-12.15-23.65a62,62,0,0,1-.74-6.43Z"/><path class="cls-4" d="M652.19,658.35c-.05-2.33-.15-4.66-.15-7q0-248.48,0-497c0-10.85.18-7.59-8.75-10.06a13.51,13.51,0,0,0-3.49-.09H43.87c-7,0-7.77.79-7.77,7.72q0,254,0,508c0,1.16-.11,2.32-.16,3.49-1.56-2.7-1.66-5.67-1.66-8.68q0-252.49,0-505c0-7.41.11-7.41,7.59-7.41h464.5c47,0,94,.08,141-.13,5.22,0,5.55,2.27,5.54,6.31q-.1,90.75,0,181.5,0,161,0,322C652.85,654.13,653.47,656.35,652.19,658.35Z"/><path class="cls-3" d="M443.89,945.42a21.07,21.07,0,0,1,4-7.31c2.81-3.7,6.09-2.7,9.39-1.7s4.21,3.72,4.28,7.05c.29,12.46-4.3,18.48-15.85,20.49a12,12,0,0,1-1.67-6.78C444.21,953.26,444,949.34,443.89,945.42Z"/><path class="cls-3" d="M361.8,959.77c.05-.62.11-1.24.16-1.86l.09-12.38c1.27-8.3,6.76-11.92,13.2-8.92,2.8,1.3,3.72,3.73,4.37,6.23,1.72,6.51-3.32,16.35-9.71,19.42C367.22,961.37,363.16,965,361.8,959.77Z"/><path class="cls-5" d="M487.11,100.05c-1-.87-.85-2.09-.85-3.22q0-23.81,0-47.61a3.23,3.23,0,0,1,.83-2.74Q487.08,73.27,487.11,100.05Z"/><path class="cls-5" d="M443.89,945.42c.07,3.92.32,7.84.13,11.75a12,12,0,0,0,1.67,6.78c-1.43.44-2.42-.17-2.38-1.57C443.47,956.73,442.38,951,443.89,945.42Z"/><path class="cls-5" d="M385.66,908.09v20.27A55.47,55.47,0,0,1,385.66,908.09Z"/><path class="cls-4" d="M36.12,664.28c4,2.58,1.13,6.57,2,9.79A17.28,17.28,0,0,1,36.12,664.28Z"/><path class="cls-5" d="M146.65,47.45c.43.84,1.21,1.66,1.23,2.51.1,3.75,0,7.5,0,11.25C145.78,56.77,147.79,52,146.65,47.45Z"/><path class="cls-5" d="M361.8,959.77c1.36,5.2,5.42,1.6,8.11,2.49-1.37,1.38-3.3,1.24-5,1.68C361,965,359.78,963.49,361.8,959.77Z"/><path class="cls-5" d="M362.05,945.53,362,957.91C361.57,953.78,361.1,949.65,362.05,945.53Z"/><path class="cls-1" d="M106.16,716.22a1.27,1.27,0,0,0-.91-.33c-.38-1.54-1.54-1.85-2.91-1.82l-.09-.06c-3.28-4.19-7.84-6.75-12.18-9.59C78.28,694.73,68.93,683.13,63,669c-4.29-10.25-3.81-21.22-3.82-32q-.16-163-.07-326c0-45.82,0-91.65-.16-137.48,0-5,1.41-6.52,6.48-6.52q278.73.18,557.44,0c4.19,0,5.35,1.25,5.34,5.36q-.16,71.24,0,142.48c0,4.47-1.36,5.53-5.7,5.53q-140.22-.18-280.46-.2c-4.74,0-6.08,1-6.05,5.93q.33,56.49,0,113c0,5.88,4.73,5.41,7.92,7.17,2.3,1.9,4.56,3.87,7.75,4a10.54,10.54,0,0,0,1.77,1.65c16,9,31.79,18.41,48.06,26.88,14,7.3,27.79,15.34,43.49,18.89,10.91,2.47,21.77,5.07,32.9,6.51,10.49,1.37,21.13.9,31.55,2.87,3.3.63,4.81-.62,4.66-4.35-.19-4.7-.64-9.36,2.45-13.85,4.12-6,9.76-8.46,16.43-8.52,10.72-.09,19.08,1.21,25,12.19,4.71,8.74,4.25,16.37-.63,24.61-3.3,5.57-2.17,7.46,4.42,8.75,4,.78,8.2.79,12.16,1.73,7.25,1.73,7.45,2.57,3.72,9.07-.76,1.33-2.37,2.7-.68,4.39,1.46,1.47,3.32,2.7,5.34,1.82a9.62,9.62,0,0,1,4.32-.67c1.56,0,2.42.69,2.31,2.46-.51,8.57-13.41,17.76-22.13,16.28-11.36-1.93-18.67-9.63-25.54-17.63a42.9,42.9,0,0,0-13.48-10.55c-3-1.52-6.82-2-9.37.54a8.63,8.63,0,0,0-1.56,10.15,33.64,33.64,0,0,1,3.34,19c-1.61,13.41-2.66,26.82-8.45,39.31-1.76,3.81-1.24,7.72,2.3,10.18,5,3.5,10.49,6.39,16.77,6.86,3.57.27,4.55,1.95,3.83,5.18a19.44,19.44,0,0,1-7.31,11.38c-8.46,6.63-11.18,16.76-7.32,26.58.78,2,1.65,4,2.37,6,1.47,4.09.41,7.26-3.21,9.84-3.2,2.28-6.62,1.82-10.06,1.48-5-.5-10-.86-14.89.25-4.57,1-8.46.46-10.59-3.78s.17-7.89,3.6-10.34c5.34-3.8,6.11-9.41,5.48-14.88-.68-6-6-7.34-11.19-8.5-11.92-2.65-23.78-5.63-28.75-19.1-3.41,4.12-4.19,10.84-1.44,14.43,2.18,2.85,1.51,4.67-.27,7.42A35.88,35.88,0,0,0,445,661.8c-.35,4.6,2.79,8,3.46,12.23.46,2.87,1.47,6.15-2.41,7.35-9.61,3-19.47,4.1-29.35,1.72-8.28-2-10.22-6-7.93-14.48.42-1.56.1-3.31.28-5,.61-5.54-2.63-11.09,0-16.6s.59-9.86-2.87-14c-4.68-5.68-8.49-12-17.21-12.87-12.44-1.19-24.77-1.86-37.13.4-4,1.09-8.42,1-12.05,3.51l-1.68.29c-3.73.47-1.89,3.39-1.89,5q-.16,85.18-.08,170.37c0,4.16.1,8.32.16,12.48-.59,3.1-2.33,1.42-3.64.8C320,807,307.18,801.19,294,796.23c-12.56-4.74-25.33-8.89-37.94-13.51C240.45,777,225,770.81,209.26,765.18A602.3,602.3,0,0,1,135.77,733c-6.87-3.55-13.19-8.1-20.38-11C112.43,719.9,109.8,717.25,106.16,716.22ZM123.09,269.3c-2.32,3.47-.71,7.26-.88,10.9-.44,3.1-1.08,5.89,3.88,5.87,26.78-.11,53.55,0,80.33.09,2.8,0,3.79-1,3.79-3.79,0-10.18-.7-20.41,1.87-30.43a16.65,16.65,0,0,0,2-7.65,41.87,41.87,0,0,0,2-5c2-6.46,3.37-13.13,6.31-19.3a61.59,61.59,0,0,1,8.22-12.41c1.46-1.77,3.07-4.17,1.32-6.32s-4-.45-5.74.7c-9.82,6.6-18.48,14.4-24.3,24.9-3.37,6.08-6.61,12.23-9.54,18.69a53.26,53.26,0,0,1-.49-8.78c0-3.48.09-7,0-10.45a4,4,0,0,0-2.83-3.76,3.28,3.28,0,0,0-3.9,1.55c-2.92,4.37-6.68,8.33-7.12,14-.18,2.35-1.44,4.16-3.26,6.7a49.71,49.71,0,0,0-4.3-14.49c-.93-1.91-1.94-4.13-4.57-4s-2.92,2.51-3.61,4.28c-1.72,4.39-3.78,8.66-4.63,13.41-1.82-.66-1.33-2.06-1.65-3.08-1.73-5.69-2.8-11.69-7.7-15.82-1.44-1.21-2.51-3.46-5-2.19-2.12,1.09-2.1,3.1-2.22,5.17-.33,5.83-1.21,11.64-.25,17.57a12.71,12.71,0,0,1-2.59-4.2c-5.41-16-15.92-27.95-29.24-37.76-2.46-1.81-5.43-5.22-8.11-2.38-2.22,2.35,1,5.47,2.67,7.79,9.78,13.54,14.42,28.88,16.68,45.22.65,4.67.42,9.65,3,14Zm426.78-43c-1.74-4.61-4-5.31-6.84-1.93a30.35,30.35,0,0,0-5,8.47c-1.42,3.62-1.82,7.72-4.18,11.22-2.21-5.45-4-10.45-6.24-15.2-1.82-3.79-4.36-3.71-6.41,0a33.15,33.15,0,0,0-3.35,9.83c-.27,1.34-.28,3.46-2,3.67-2.12.26-1.79-2-2.2-3.28-1.73-5.39-3.77-10.6-7.6-14.9-1.17-1.32-2.54-2.23-4.39-1.61-1.68.56-2.07,2.11-2.25,3.59-.22,1.81-.12,3.65-.26,5.48-.28,3.49.92,7.14-1.1,11.27-2-3.64-3.71-6.62-5.26-9.7-6.64-13.17-16.42-23.46-28.65-31.54-1.57-1-3.17-2.28-4.89-.56s-.58,3.53.6,4.9c8.8,10.22,12.35,22.91,16.22,35.32,3.94,12.63,4.67,25.76,4,38.93-.2,4.2,1.05,5.88,5.59,5.85q39-.25,77.92.06c4.33,0,5.47-1.37,5.26-5.43-.71-13.73,1.84-27.08,4.94-40.39a99.87,99.87,0,0,1,14.46-32.45c1.43-2.18,4-4.91,1.45-7-2.27-1.92-5,.7-7.09,2.18A87.65,87.65,0,0,0,558,230.61c-2.83,4.86-5,10-7.74,15-.15-1.8-.3-3.61-.44-5.42Zm-263.78-24c-1.7-1.79-3.93-3-5.88-1.21-1.78,1.66-.13,3.56,1.22,5,3.67,6.47,8,12.59,10.6,19.62a137.22,137.22,0,0,1,9.06,53.12c-.23,6.81.31,7.21,6.88,7.21h34c14.32,0,28.64-.11,43,0,3.42,0,5-.58,5-4.69-.05-9.25-.17-18.45,1.93-27.72,3.58-15.85,6.95-31.6,16.76-45.08,1.61-2.21,4.25-5.16,1.82-7.53s-5.19.73-7.29,2.23A81,81,0,0,0,376,236.78c-1.34,3-1.48,6.74-5.18,9.54,0-6.54.05-12.3,0-18.07,0-2.23.62-5.07-2.48-5.77-2.92-.66-4.39,1.51-5.79,3.75a68.3,68.3,0,0,0-7.79,18.9c-1-3.37-1.72-5.94-2.62-8.42a74.48,74.48,0,0,0-3.05-7.33c-2.1-4.33-3.69-4.38-6.72-.55-3.65,4.61-3.63,10.5-5.68,16.28-2.17-6.84-4.39-13.07-8.13-18.6-1.39-2-2.73-4.73-5.71-3.86s-2.86,3.76-2.87,6.29c0,5.18,0,10.36,0,15.54-2-5.32-5.62-9.3-8-13.92C305.83,218.9,296.57,210,286.09,202.33Zm-1.95,240.93c5.26-4.35,3.63-9.45,1.67-14.17-1.78-4.28-7.09-4.88-10.19-4.75-3.88.17-4.91,5.58-6.47,9.19-.39.91-.54,1.92-.92,2.84-5.44,13.24-10.31,15.48-21.76,13.12a19.77,19.77,0,0,0-16,3.66c-8.52,6.19-15.91,13.57-23.52,20.78-10.44,9.89-21.9,17.43-37.45,12.81-4.54-1.34-5.62,1.77-5.68,5.24-.16,9.15,10,14.92,18.71,10.45,5-2.56,9.91-5.4,13.82-9.63,6.86-7.42,16.29-3.15,20.18,3.95,1.13,2.05,1.94,5.62-.94,7.15s-4.25-1.32-5.5-3.52-1.89-5.28-5.25-3.83c-2.9,1.24-4.74,3.81-4,7.16,3.62,17.33,7.81,21.75,21.37,25.28,1.72.44,4,.25,3.68,3-.31,2.5-2.45,3-4.49,3.11-3.9.19-7.53-1.11-11.07-2.57-10.87-4.5-22.48-7-33-12.41a2.81,2.81,0,0,0-3.62.41,3.13,3.13,0,0,0-.38,4.12c3,4.76,5.07,10.1,9.08,14.22,6.7,6.89,14.15,11.55,24.37,8.81a12.05,12.05,0,0,1,5-.06c3.49.58,4.3,3.9,5.69,6.39,1.47,2.65-1.32,2.76-2.77,3.55a2.52,2.52,0,0,0-1.29,3.4c1.4,2.78-.07,4.59-1.46,6.76-1.86,2.89-2.94,6.32-.23,9.18s6.08,4.81,10.26,2.71c2.36-1.19,4.65-2.53,7-3.76,2.72-1.42,2.84-3.2,1.08-5.58-2.64-3.55-3.72-7.29-1.37-11.59,2.18-4,5.87-4.39,8.41-.61a19.84,19.84,0,0,1,1.21,2.69c2.61,5.66,7.95,6.91,13.2,7.1,6,.21,10.89-4.84,10.55-10.15-.18-2.77-1.11-5.5-1.69-8.24-.48-2.26-1.67-3.49-4.17-3.23-1.88.2-4.32,0-4.58-2-.85-6.45-3.73-12.69-1.41-19.52,1.89-5.57,2.6-6.45,7.95-4.15,3.72,1.59,5.3,0,6.12-3.19.57-2.22.46-4.67,1.3-6.77s1.39-4.95,4.17-5.61c1.77-.41,3.77-.31,5,1.46,1.62,2.37.3,4.66-.9,6.52-5.42,8.47-4.81,18.15-5.55,27.47-1,12.87,2.14,25.41,4.06,38,1.07,7.06-1.35,12.35-7.18,16.16a102.45,102.45,0,0,1-11.12,6.62c-11.33,5.5-22.52,11.32-34.74,14.83-5.13,1.47-6.55,5.44-4.87,10.94,1.58,5.15,4.92,4.65,9.07,3.43,6.92-2,13.2-5.42,19.72-8.33,8.3-3.7,17.21-5.67,26.18-4.55,11.69,1.46,23.25,3.23,35.09,2,5.38-.53,6.77-1.39,6.88-6.82.06-3.15-1-6.55-.13-9.4,1.05-3.4.18-4.45-2.81-5.15-1.1-.25-2-1.16-3.12-1.53-3.68-1.25-4.2-3.67-2.18-6.55,3.53-5,7.12-10,11.06-14.7,2.39-2.85,5.83-2,6.55,1.58s3.1,5.78,5.46,8.09c4,4,4.15,5.63.55,10.29-2.62,3.4-2.29,14.58.68,17.74a5.82,5.82,0,0,0,3.37,1.94,140,140,0,0,0,17.36.54c10.23-.63,20.13-3.67,30.43-4.42a127,127,0,0,0,31-6.5,12.9,12.9,0,0,0,5.27-3.52c.75-.79,1.53-2.1.91-3.2s-2.27-1-3.17-.59c-4.12,2-4.78-.63-5.32-3.63-.93-5.18-1.66-10.32-4.21-15.16-2.25-4.26-.33-10.44,3.26-13.58s7.62-3,11.13.25c4.8,4.36,6.05,8.74,3.58,12.46-3.45,5.2-2.55,16.3,2,20.64,2,1.89,4.63,3.94,7.53,2.35,2.68-1.47,1.67-4.17,1.13-6.71-.67-3.17-2.13-6.39-.66-9.72.44-1,.57-2.47,2-2.56,1.17-.08,1.45,1.22,2,2,6.46,8.82,10.81,19.12,18.53,27,5.51,5.65,8.32,13.67,15.75,17.61,3.16,1.68,6.62,5.09,9.84,2.17,3-2.71,1-6.72-.66-10.11-2.81-5.79-1.71-11.53,2.81-15.64,2.37-2.14,5-4,8.36-2.61s5,4.18,5,7.89a26.75,26.75,0,0,1-.88,8.41c-1.3,4.06-1.55,7.68,1.09,11.68s3.17,8.57,2.36,13.41c-.61,3.73-1.62,7.53-1,11.36a18.72,18.72,0,0,1-1.09,11c-1.41,3.26.11,5.94,3.76,6.67a36.62,36.62,0,0,0,8.4.83c4-.16,6.41-3.4,6.15-7.37a60.76,60.76,0,0,1,6-31.37c1.27-2.58,1.07-4.1-1.49-5.73-3.34-2.12-6.39-4.72-9.52-7.17-3.45-2.71-5.32-6.43-3.81-10.56a279.12,279.12,0,0,0,9.18-29.2c4.17-16.9,2.59-32.77-7.94-47.16a14.13,14.13,0,0,1-2.68-5.84c-.52-2.75.08-4,3.18-3.85,5.65.2,11.34.3,17,0,10.32-.54,20.27-1.76,27.91-10.34,6.34-7.12,6.81-16.57-.22-22.81-5.55-4.93-12.43-5-19.25-4-7.07,1.05-12.95,8.14-13,15.17,0,3.72,2.86,5.09,5.54,6.31,3.06,1.38,3.36-1.72,4.51-3.31a14.91,14.91,0,0,0,1.1-2.23c1.39-2.84,3.12-5.54,6.8-4.26,3.46,1.2,6.34,3.64,5.87,7.66-.43,3.67-2.66,6.38-6.8,6.71-2,.16-4,.32-6,.36-8.93.17-18,2.45-26.77.07a82.72,82.72,0,0,0-25.59-2.89,31.94,31.94,0,0,1-14.84-3.23c-4.76-2.15-9.93-3.87-15.38-3.17-5.11.66-7.35,3.93-7.22,9.58.13,5.39,4.45,4.36,7.55,5.11,1.26.3,2.66-.1,4,0a4,4,0,0,1,3.11,6.4c-1.4,2.08-3.49,3.34-6,2.46-3.14-1.12-5,.71-6.09,2.82-1.2,2.33-.35,4.34,2,6.35,3.37,2.86,7,5.75,9.2,9.72,1.08,1.91,3,4.2.07,6.08-2.47,1.58-3.85-.36-5.33-2.08-3.81-4.43-7.56-9.37-14.3-4.31a3.83,3.83,0,0,1-1.95.36c-2.07.13-3.33-.6-2.67-2.91,1.48-5.14.23-9.92-2.21-14.35s-1.38-8.2.88-12.08c.84-1.44,1.69-2.87,2.43-4.35,3.59-7.23,2.9-9.72-3.81-13.9a20.12,20.12,0,0,0-2.21-1.15c-17.92-8.32-35.5-17.26-51.9-28.36-4-2.7-8.41-4.41-12.88-6.17C353.76,462,349.17,457,343,454.6c-13.67-5.23-27.15-10.56-42.37-9.26-5.49.46-7.2,2.65-7.66,7.49-.44,4.55-2.14,5.3-6.11,3.16s-5.76-.95-5.91,3.67,2.7,7.73,4.71,11.31,4.57,6.53,4.3,10.91c-.11,1.84-.81,2.74-2.47,3.15a2.83,2.83,0,0,1-3.54-1.95c-.76-1.84-1.17-3.81-1.88-5.66s-.68-4.86-3.8-4.23c-2.29.46-3.47,2.37-3.19,4.9.18,1.67-.28,3-2.21,3.21s-2.63-1-3.27-2.45c-1.4-3.28-.93-6.65,0-9.8,1.17-3.86.27-6.17-3.32-8.15-5.19-2.86-5.19-6.21-.35-9.65a23.82,23.82,0,0,1,3.94-2.15c2.78-1.26,4.75-2.62,3.45-6.37-.79-2.26.17-4.55,2.74-5.74s3.54.71,4.76,2.26C281.81,440.53,282.89,441.76,284.14,443.26ZM432.27,610.09c-6.36-.46-13.06,1.48-19.57,4.09-9.68,3.88-10.08,6.58-1.61,13A14.15,14.15,0,0,1,417,637.57c.36,4.25.77,8.64-.34,12.91-.62,2.36,0,4.78,1.8,5.84,4.42,2.58,5.14,5.78,3.61,10.42-.64,2-.91,5,1.91,6.09,3.4,1.3,7.23,2.73,10.6.82,2.42-1.38,2.38-4.41,1.53-7.18-1.32-4.29-1.93-8.45,2.4-11.71.78-.59,1.07-2,1.26-3.16q2.22-13.46,4.28-26.92C445.5,615.29,441.52,610.08,432.27,610.09Zm-269.1-58.84a13.85,13.85,0,0,0-2.54-9.42,83,83,0,0,1-9.06-19.28c-1.82-5.2-3.77-10.88-11-11.22-1,0-2.08-1.07-2.82-1.92-2.49-2.86-5.81-3.59-9.31-4.13-2.49-.39-5-.39-6,2.15s-1.54,5.51.82,7.46c3.67,3,4.52,7,5.35,11.37a155.2,155.2,0,0,0,4.56,19.22c3.38,10.45,10,16.4,19.14,16.94C159,562.82,163.46,558.05,163.17,551.25Zm-3.3-70.13a2.73,2.73,0,0,0-2.35,1.77,31.06,31.06,0,0,0-4.19,17.66,111.3,111.3,0,0,0,3.8,20.94c3.67,13.2,10.67,25,16.77,37.16a5.89,5.89,0,0,0,2.7,2.07c2.68,1.32,5,.09,6.78-1.71a5.7,5.7,0,0,0,.75-7.74c-4.24-6.54-8.64-13-12.84-19.55-9.43-14.72-14-30.51-10.39-48.07C161.13,482.53,161.67,481.26,159.87,481.12ZM316.74,647.51c.88-13.55-3.1-14.71-10.15-18.19-2.49-1.23-5.21-.86-7.81-1.14-7.31-.79-9.24,1.09-7.46,8.18s4.52,14.13,6.9,21.17c.58,1.71,2.14,2.46,3.73,3,8.45,3,14.72-1.36,14.79-10.32C316.75,649.08,316.74,647.92,316.74,647.51ZM177.91,590.63c.42,4.26-1,9.31,3.41,10.13,4.16.77,7.59-2.84,9.65-6.66,3.26-6,5.1-12.57,6.91-19.13a4.13,4.13,0,0,0-4.1-5.43c-3.23.22-6.78.34-9.7,3C178.3,577.76,179.25,584.87,177.91,590.63Zm388.22-37c1.88-.34,4.16-.73,6.43-1.17,1.54-.3,3.82,0,4-2,.16-1.62-2-2-3.35-2.42-8.47-2.47-14.93-6.65-18-15.76-1.8-5.28-6.72-6.19-11.54-4.14-2,.87-2.44,1.73-1.27,3.66,2.49,4.1,4.66,8.4,7.23,12.45C553.32,550.11,558.87,553,566.13,553.62ZM250.47,439.41c4.76.23,6.75-1.41,6.73-4.83,0-4.57-3.12-8.61-6.67-8.31a16,16,0,0,0-13.21,8.37c-1.76,3,.06,4.56,2.3,4.18A22.31,22.31,0,0,1,250.47,439.41Zm57.71,232.21c0-1.71-2.13-5.76-3.68-6.42-2.72-1.17-4.31.73-6,2.34a28.75,28.75,0,0,0-2.79,2.84,6.86,6.86,0,0,0,.93,9.78c3.37,2.57,6.46.76,8.94-1.38C307.47,677.18,307.94,674.47,308.18,671.62Zm-104.78-93c-2.76,1.11-3.17,3.21-3,5.74s1.52,4.57,3.78,4.2a4.79,4.79,0,0,0,3.63-5.27C207.56,580.81,205.43,579.58,203.4,578.62Zm-54.25-98.87c-.92-1.95-.87-4.84-3.8-4.52-3.35.37-3.53,3.59-3.94,6a2.72,2.72,0,0,0,2.89,3.17C147.48,484.42,148.16,481.93,149.15,479.75Z"/><path class="cls-6" d="M351.83,620.55c12.36-2.26,24.69-1.59,37.13-.4,8.72.84,12.53,7.19,17.21,12.87,3.46,4.18,5.43,8.61,2.87,14s.65,11.06,0,16.6c-.18,1.65.14,3.4-.28,5-2.29,8.44-.35,12.49,7.93,14.48,9.88,2.38,19.74,1.25,29.35-1.72,3.88-1.2,2.87-4.48,2.41-7.35-.67-4.2-3.81-7.63-3.46-12.23a35.88,35.88,0,0,1,6.12-16.91c1.78-2.75,2.45-4.57.27-7.42-2.75-3.59-2-10.31,1.44-14.43,5,13.47,16.83,16.45,28.75,19.1,5.23,1.16,10.51,2.52,11.19,8.5.63,5.47-.14,11.08-5.48,14.88-3.43,2.45-5.74,6.08-3.6,10.34s6,4.81,10.59,3.78c4.87-1.11,9.91-.75,14.89-.25,3.44.34,6.86.8,10.06-1.48,3.62-2.58,4.68-5.75,3.21-9.84-.72-2-1.59-4-2.37-6-3.86-9.82-1.14-20,7.32-26.58a19.44,19.44,0,0,0,7.31-11.38c.72-3.23-.26-4.91-3.83-5.18-6.28-.47-11.75-3.36-16.77-6.86-3.54-2.46-4.06-6.37-2.3-10.18,5.79-12.49,6.84-25.9,8.45-39.31a33.64,33.64,0,0,0-3.34-19,8.63,8.63,0,0,1,1.56-10.15c2.55-2.53,6.35-2.06,9.37-.54a42.9,42.9,0,0,1,13.48,10.55c6.87,8,14.18,15.7,25.54,17.63,8.72,1.48,21.62-7.71,22.13-16.28.11-1.77-.75-2.42-2.31-2.46a9.62,9.62,0,0,0-4.32.67c-2,.88-3.88-.35-5.34-1.82-1.69-1.69-.08-3.06.68-4.39,3.73-6.5,3.53-7.34-3.72-9.07-4-.94-8.14-1-12.16-1.73-6.59-1.29-7.72-3.18-4.42-8.75,4.88-8.24,5.34-15.87.63-24.61-5.92-11-14.28-12.28-25-12.19-6.67.06-12.31,2.53-16.43,8.52-3.09,4.49-2.64,9.15-2.45,13.85.15,3.73-1.36,5-4.66,4.35-10.42-2-21.06-1.5-31.55-2.87-11.13-1.44-22-4-32.9-6.51-15.7-3.55-29.48-11.59-43.49-18.89C385.31,470.42,369.51,461,353.52,452a10.54,10.54,0,0,1-1.77-1.65c.1-4.13.28-8.27.27-12.41q0-49.8-.15-99.59c.24-1.14.41-2.3,2.05-2.22,1.49.06,3,0,4.49,0q132.95,0,265.88,0c2.65,0,5.33-.34,7.93.49q0,155.06,0,310.13c0,8.06-.82,15.85-3.94,23.31l-.21,1.24a24.1,24.1,0,0,0-3.82,8.94c-2.15,3.94-5.17,7.2-8.14,10.51-3.19,4-7.48,7-10.19,11.35v0c-4.74,2.75-8.52,6.71-12.72,10.15C569.12,728.58,543,741.08,516.12,752c-35.24,14.33-71.41,26-107.32,38.46-17.71,6.14-35.05,13.27-52.12,21-1.41.64-2.88,2.65-4.75.65.05-.82.12-1.65.12-2.48q0-89.6,0-179.19C352,627.19,351.9,623.87,351.83,620.55Z"/><path class="cls-5" d="M628.3,670.06c3.12-7.46,4-15.25,3.94-23.31q-.11-155.07,0-310.13c2.85.72,1.41,3,1.41,4.49q.14,42,.07,84,0,114.71,0,229.41C633.71,660.33,632.82,665.82,628.3,670.06Z"/><path class="cls-4" d="M351.83,620.55c.07,3.32.21,6.64.21,10q0,89.6,0,179.19c0,.83-.07,1.66-.12,2.48-3.16-1-1.75-3.63-1.75-5.49q-.12-85.66-.07-171.33c0-10.76,0-10.76-10.33-11.3C343.41,621.55,347.79,621.64,351.83,620.55Z"/><path class="cls-4" d="M336.29,812.24c-.06-4.16-.16-8.32-.16-12.48q0-85.18.08-170.37c0-1.65-1.84-4.57,1.89-5q0,90.92-.09,181.84C338,808.22,339.47,811,336.29,812.24Z"/><path class="cls-4" d="M351.87,338.36q.08,49.8.15,99.59c0,4.14-.17,8.28-.27,12.41-3.19-.17-5.45-2.14-7.75-4,4.94,1.09,6.28-.75,6.24-5.83-.25-32.38-.15-64.76-.06-97.14C350.19,341.65,348.86,339.17,351.87,338.36Z"/><path class="cls-4" d="M90.07,704.42c4.34,2.84,8.9,5.4,12.18,9.59C97.44,713.86,91.72,709.36,90.07,704.42Z"/><path class="cls-4" d="M593.23,712.23c4.2-3.44,8-7.4,12.72-10.15C602.7,706.7,600.05,712.08,593.23,712.23Z"/><path class="cls-4" d="M605.94,702.1c2.71-4.4,7-7.38,10.19-11.35C614.74,696.33,610.54,699.4,605.94,702.1Z"/><path class="cls-4" d="M624.27,680.24a24.1,24.1,0,0,1,3.82-8.94C628.08,674.82,629,678.71,624.27,680.24Z"/><path class="cls-4" d="M106.16,716.22c3.64,1,6.27,3.68,9.23,5.79C111.13,722,108,720.14,106.16,716.22Z"/><path class="cls-4" d="M102.34,714.07c1.37,0,2.53.28,2.91,1.82C103.25,716.93,102.27,716.34,102.34,714.07Z"/><path class="cls-1" d="M112.48,60.08c.86,4.59,1.75,9.18,2.53,13.78.13.79,1,2.24-.56,2.4a21,21,0,0,1-6.39-.25c-1.22-.26-.47-1.64-.2-2.55l3.87-13.22Z"/><path class="cls-1" d="M247.14,898a32.77,32.77,0,0,1,.08-6c.36-2,1.37-3.59,3.89-3.83,2.7-.25,2.87,1.78,3.46,3.36,1.46,4,.33,7.86-.86,11.61-.81,2.55-3.43,2.5-5.5,2.29-2.28-.23-.87-2.3-1.12-3.51a21,21,0,0,1-.05-4Z"/><path class="cls-1" d="M52.54,91.24a10.82,10.82,0,0,1,0-3c.5-1.66-1.42-4.46,1.67-4.87s6.47-1,8,2.9c1.17,2.9,2.12,6,1.62,9.07s-1.24,6.94-5.18,6.56c-3.6-.34-6.91-2.4-6.19-7.23a23.61,23.61,0,0,0,0-3.47Z"/><path class="cls-1" d="M52,55.66a32.67,32.67,0,0,1,1-9.26c.73-2.76,2.3-3.73,5-3.75,2.92,0,3.44,1.72,3.84,4.1A23.75,23.75,0,0,1,61,58.53,12.93,12.93,0,0,1,59.23,62,5.7,5.7,0,0,1,53,64.12c-2-.54-.67-2.88-1-4.38A26.45,26.45,0,0,1,52,55.66Z"/><path class="cls-1" d="M415.79,57c1.81-8,3.93-9.81,11.22-9.69,5.51.1,11,5.22,12,11.38a125.91,125.91,0,0,1,1.13,27.71,24.57,24.57,0,0,1-2.62,9c-2.1,4.32-6.95,3.78-10.49,3.52-6.59-.49-10.32-4.39-10.74-10.66-.15-2.12-.68-4.21-1-6.31C414.61,73.58,416.86,65.31,415.79,57Z"/><path class="cls-5" d="M415.79,57c1.07,8.34-1.18,16.61-.54,24.93-1.92-2.11-1-4.7-.94-7C414.59,68.91,415.27,63,415.79,57Z"/><path class="cls-5" d="M284.14,443.26c-1.25-1.5-2.33-2.73-3.34-4-1.22-1.55-2.18-3.44-4.76-2.26s-3.53,3.48-2.74,5.74c1.3,3.75-.67,5.11-3.45,6.37a23.82,23.82,0,0,0-3.94,2.15c-4.84,3.44-4.84,6.79.35,9.65,3.59,2,4.49,4.29,3.32,8.15-1,3.15-1.43,6.52,0,9.8.64,1.49,1.44,2.66,3.27,2.45s2.39-1.54,2.21-3.21c-.28-2.53.9-4.44,3.19-4.9,3.12-.63,3.08,2.35,3.8,4.23s1.12,3.82,1.88,5.66a2.83,2.83,0,0,0,3.54,1.95c1.66-.41,2.36-1.31,2.47-3.15.27-4.38-2.37-7.47-4.3-10.91s-4.85-6.82-4.71-11.31,2-5.78,5.91-3.67,5.67,1.39,6.11-3.16c.46-4.84,2.17-7,7.66-7.49,15.22-1.3,28.7,4,42.37,9.26,6.22,2.37,10.81,7.43,16.86,9.82,4.47,1.76,8.89,3.47,12.88,6.17,16.4,11.1,34,20,51.9,28.36a20.12,20.12,0,0,1,2.21,1.15c6.71,4.18,7.4,6.67,3.81,13.9-.74,1.48-1.59,2.91-2.43,4.35-2.26,3.88-3.29,7.71-.88,12.08s3.69,9.21,2.21,14.35c-.66,2.31.6,3,2.67,2.91a3.83,3.83,0,0,0,1.95-.36c6.74-5.06,10.49-.12,14.3,4.31,1.48,1.72,2.86,3.66,5.33,2.08,2.93-1.88,1-4.17-.07-6.08-2.24-4-5.83-6.86-9.2-9.72-2.36-2-3.21-4-2-6.35,1.1-2.11,2.95-3.94,6.09-2.82,2.5.88,4.59-.38,6-2.46a4,4,0,0,0-3.11-6.4c-1.33-.1-2.73.3-4,0-3.1-.75-7.42.28-7.55-5.11-.13-5.65,2.11-8.92,7.22-9.58,5.45-.7,10.62,1,15.38,3.17a31.94,31.94,0,0,0,14.84,3.23,82.72,82.72,0,0,1,25.59,2.89c8.8,2.38,17.84.1,26.77-.07,2,0,4-.2,6-.36,4.14-.33,6.37-3,6.8-6.71.47-4-2.41-6.46-5.87-7.66-3.68-1.28-5.41,1.42-6.8,4.26a14.91,14.91,0,0,1-1.1,2.23c-1.15,1.59-1.45,4.69-4.51,3.31-2.68-1.22-5.58-2.59-5.54-6.31.06-7,5.94-14.12,13-15.17,6.82-1,13.7-.94,19.25,4,7,6.24,6.56,15.69.22,22.81-7.64,8.58-17.59,9.8-27.91,10.34-5.65.3-11.34.2-17,0-3.1-.11-3.7,1.1-3.18,3.85a14.13,14.13,0,0,0,2.68,5.84c10.53,14.39,12.11,30.26,7.94,47.16a279.12,279.12,0,0,1-9.18,29.2c-1.51,4.13.36,7.85,3.81,10.56,3.13,2.45,6.18,5,9.52,7.17,2.56,1.63,2.76,3.15,1.49,5.73a60.76,60.76,0,0,0-6,31.37c.26,4-2.17,7.21-6.15,7.37a36.62,36.62,0,0,1-8.4-.83c-3.65-.73-5.17-3.41-3.76-6.67a18.72,18.72,0,0,0,1.09-11c-.66-3.83.35-7.63,1-11.36.81-4.84.19-9.55-2.36-13.41s-2.39-7.62-1.09-11.68a26.75,26.75,0,0,0,.88-8.41c0-3.71-1.63-6.49-5-7.89s-6,.47-8.36,2.61c-4.52,4.11-5.62,9.85-2.81,15.64,1.64,3.39,3.64,7.4.66,10.11-3.22,2.92-6.68-.49-9.84-2.17-7.43-3.94-10.24-12-15.75-17.61-7.72-7.92-12.07-18.22-18.53-27-.56-.76-.84-2.06-2-2-1.41.09-1.54,1.55-2,2.56-1.47,3.33,0,6.55.66,9.72.54,2.54,1.55,5.24-1.13,6.71-2.9,1.59-5.56-.46-7.53-2.35-4.54-4.34-5.44-15.44-2-20.64,2.47-3.72,1.22-8.1-3.58-12.46-3.51-3.2-7.65-3.29-11.13-.25s-5.51,9.32-3.26,13.58c2.55,4.84,3.28,10,4.21,15.16.54,3,1.2,5.67,5.32,3.63.9-.45,2.52-.54,3.17.59s-.16,2.41-.91,3.2a12.9,12.9,0,0,1-5.27,3.52,127,127,0,0,1-31,6.5c-10.3.75-20.2,3.79-30.43,4.42a140,140,0,0,1-17.36-.54,5.82,5.82,0,0,1-3.37-1.94c-3-3.16-3.3-14.34-.68-17.74,3.6-4.66,3.48-6.32-.55-10.29-2.36-2.31-4.74-4.49-5.46-8.09s-4.16-4.43-6.55-1.58c-3.94,4.69-7.53,9.69-11.06,14.7-2,2.88-1.5,5.3,2.18,6.55,1.09.37,2,1.28,3.12,1.53,3,.7,3.86,1.75,2.81,5.15-.88,2.85.19,6.25.13,9.4-.11,5.43-1.5,6.29-6.88,6.82-11.84,1.19-23.4-.58-35.09-2-9-1.12-17.88.85-26.18,4.55-6.52,2.91-12.8,6.3-19.72,8.33-4.15,1.22-7.49,1.72-9.07-3.43-1.68-5.5-.26-9.47,4.87-10.94,12.22-3.51,23.41-9.33,34.74-14.83A102.45,102.45,0,0,0,265,594.55c5.83-3.81,8.25-9.1,7.18-16.16-1.92-12.61-5.07-25.15-4.06-38,.74-9.32.13-19,5.55-27.47,1.2-1.86,2.52-4.15.9-6.52-1.21-1.77-3.21-1.87-5-1.46-2.78.66-3.32,3.47-4.17,5.61s-.73,4.55-1.3,6.77c-.82,3.23-2.4,4.78-6.12,3.19-5.35-2.3-6.06-1.42-7.95,4.15-2.32,6.83.56,13.07,1.41,19.52.26,2,2.7,2.23,4.58,2,2.5-.26,3.69,1,4.17,3.23.58,2.74,1.51,5.47,1.69,8.24.34,5.31-4.54,10.36-10.55,10.15-5.25-.19-10.59-1.44-13.2-7.1A19.84,19.84,0,0,0,237,558c-2.54-3.78-6.23-3.38-8.41.61-2.35,4.3-1.27,8,1.37,11.59,1.76,2.38,1.64,4.16-1.08,5.58-2.35,1.23-4.64,2.57-7,3.76-4.18,2.1-7.57.13-10.26-2.71s-1.63-6.29.23-9.18c1.39-2.17,2.86-4,1.46-6.76a2.52,2.52,0,0,1,1.29-3.4c1.45-.79,4.24-.9,2.77-3.55-1.39-2.49-2.2-5.81-5.69-6.39a12.05,12.05,0,0,0-5,.06c-10.22,2.74-17.67-1.92-24.37-8.81-4-4.12-6.09-9.46-9.08-14.22a3.13,3.13,0,0,1,.38-4.12,2.81,2.81,0,0,1,3.62-.41c10.54,5.38,22.15,7.91,33,12.41,3.54,1.46,7.17,2.76,11.07,2.57,2-.09,4.18-.61,4.49-3.11.34-2.7-2-2.51-3.68-3-13.56-3.53-17.75-8-21.37-25.28-.7-3.35,1.14-5.92,4-7.16,3.36-1.45,4.08,1.76,5.25,3.83s2.52,5.1,5.5,3.52,2.07-5.1.94-7.15c-3.89-7.1-13.32-11.37-20.18-3.95-3.91,4.23-8.83,7.07-13.82,9.63-8.74,4.47-18.87-1.3-18.71-10.45.06-3.47,1.14-6.58,5.68-5.24,15.55,4.62,27-2.92,37.45-12.81,7.61-7.21,15-14.59,23.52-20.78a19.77,19.77,0,0,1,16-3.66c11.45,2.36,16.32.12,21.76-13.12.38-.92.53-1.93.92-2.84,1.56-3.61,2.59-9,6.47-9.19,3.1-.13,8.41.47,10.19,4.75C287.77,433.81,289.4,438.91,284.14,443.26Zm26.77,98.49c0-2.58,1.21-4.2,4.7-3.41,3.13.71,5.3.09,6.6-2.7s-.94-5.26-2.73-6.21c-4.84-2.59-8.29-6.4-11.55-10.57-1.85-2.36-3.77-2.5-6.41-.77-8.64,5.63-11.54,15-6.9,23.41a2.83,2.83,0,0,1,.06,2.38c-1.78,5.58.58,10.8,1.72,16.06.66,3,3.44,3.94,5.78,1.81,3-2.75,5-2.21,7.33.69,2,2.4,4.72,4.29,7.77,2s.5-4.66-.44-7C315,552.71,310.77,549,310.91,541.75Zm-82.74-41.07c3,1.7,3.83,4.1,4.36,6.45.75,3.4,3.26,5.42,5.66,7.32,1.5,1.18,3.95,2.57,5.88,1.09,2.11-1.61.94-3.91,0-5.89-.64-1.35-1.21-2.74-1.9-4.06-5.16-9.87-5-11.23,2.6-19.07,1.46-1.5,2.84-3.14,2-5.22a4.77,4.77,0,0,0-4.8-2.85c-4.6,0-7.47-2-8-6.91-.21-1.8-.83-3.57-3.41-3.37-2.13.16-4.67-.4-5.23,2.5-.84,4.38-3.61,7.12-6.85,9.9-5.15,4.42-4.69,6.77,1.55,9.47,3.07,1.32,4.88,3.36,4.86,6.66,0,2.86.9,5.71-.32,8.66-.42,1-1.27,3.65,1.53,3.8,2.17.1,2-1.83,2.13-3.26S228.17,502.93,228.17,500.68ZM373,577.34c-2.33-6.65-3.87-15-8.74-22.18a3,3,0,0,0-2.86-1.5c-4.48.18-6.44-2.54-4.84-6.65.7-1.81,2.41-3.93,0-5.16-2.28-1.15-4.4.4-5.92,2.36-2.22,2.86-4,6-6.91,8.38a4.06,4.06,0,0,0,.36,6.85c3.12,2,3,5,3.84,7.71a34.33,34.33,0,0,1,1.1,7.31c.27,3.71,2.76,4.8,5.48,3.66,3.8-1.58,6.09-.63,8.33,2.45a9,9,0,0,0,3.7,2.47C370.44,584.76,373,583,373,577.34Zm-21.91-51.15c1.53-.35,3.39.37,4.19-1.27s-1-2.2-1.76-3.22c-3.89-5.5-8.39-10.66-7.58-18.22.29-2.76.9-4.45,4-4.41,1.78,0,4.24.25,4.71-1.67s-.66-3.93-2.35-5.19c-3.31-2.47-6.36-4.9-7.95-9.09-1.14-3-6.56-3.12-7.18-.27-1,4.82-4.92,6.09-7.94,8.6s-2.83,5.51.27,7.81c6.77,5,6.77,5,4.31,13.11-1.72,5.65-.46,8.58,4.9,11C342.7,525.16,347,525.53,351.13,526.19Zm117,60.17a7.29,7.29,0,0,0,5,6.8c3.12.79,3.44-1.76,4.46-3.54.53-.92.64-2.11,2.36-2,6.05.35,7.53-1.2,5.82-6.6-1.22-3.84-3.71-7.5,2-9.8.31-.13.47-.85.56-1.32.63-3.55-6.6-13.24-10.24-13.54-2.34-.2-5.16-.14-6.4,1.93-2.21,3.71-5,7.54-1.89,12.32,2.29,3.52,3.13,7.14-.24,10.83A6,6,0,0,0,468.15,586.36Z"/><path class="cls-4" d="M286.09,202.33c10.48,7.7,19.74,16.57,25.83,28.23,2.42,4.62,6.08,8.6,8,13.92,0-5.18,0-10.36,0-15.54,0-2.53-.06-5.44,2.87-6.29s4.32,1.81,5.71,3.86c3.74,5.53,6,11.76,8.13,18.6,2.05-5.78,2-11.67,5.68-16.28,3-3.83,4.62-3.78,6.72.55a74.48,74.48,0,0,1,3.05,7.33c.9,2.48,1.59,5,2.62,8.42a68.3,68.3,0,0,1,7.79-18.9c1.4-2.24,2.87-4.41,5.79-3.75,3.1.7,2.46,3.54,2.48,5.77.07,5.77,0,11.53,0,18.07,3.7-2.8,3.84-6.56,5.18-9.54a81,81,0,0,1,27.08-33.49c2.1-1.5,4.76-4.69,7.29-2.23s-.21,5.32-1.82,7.53c-9.81,13.48-13.18,29.23-16.76,45.08-2.1,9.27-2,18.47-1.93,27.72,0,4.11-1.55,4.71-5,4.69-14.32-.08-28.64,0-43,0H308c-6.57,0-7.11-.4-6.88-7.21A137.22,137.22,0,0,0,292,225.78c-2.63-7-6.93-13.15-10.6-19.62l3.05.07,5.38,7.53c2.12,4.63,4.55,9.14,6.31,13.91,3.54,9.56,5.29,19.6,7.12,29.61.34,1.85-.06,4.67,3.23,4.68,2.82,0,5.65.07,8.47,0,2.2-.06,3.44-1.2,3.07-3.51-1-6.37-2.11-12.74-4.79-18.68-5.25-11.63-13.3-21.14-22.61-29.68a10.12,10.12,0,0,0-6.14-4.68C285,204.37,285.57,203.35,286.09,202.33Zm52,53.8c-.13,4.76,2.21,6.61,6.85,5.91a15.23,15.23,0,0,1,4-.05c2.64.31,3.65-.82,3.52-3.38-.48-9.72-1.36-19.33-7.06-28A18.77,18.77,0,0,0,342,238c-1.26,5.48-1.76,11.14-3.79,16.43-.48-1.85.6-4.07-1.47-5.59C337.07,251.31,334.19,254.25,338,256.13Zm7.07,19.11c12.16,0,24.32-.09,36.48.06,3.28.05,5-.68,4.76-4.35-.2-3.23.3-6.55-4.6-6.39s-9.64.08-14.46.07c-19.63,0-39.27.06-58.89-.13-5.24-.05-4,3.38-4.34,6.37-.39,3.64,1.2,4.47,4.57,4.42C320.79,275.13,333,275.23,345.11,275.24ZM405.71,206c-7.65,5.77-15,11.7-20,20.12-5.73,9.56-10.72,19.35-12.27,30.55-.22,1.57-1.08,3.7.8,4.48a17,17,0,0,0,11.26.43c2.43-.71,2.24-4.05,2.79-6.46,2.39-10.3,3.57-20.93,8-30.69A174.21,174.21,0,0,1,405.71,206Zm-60.62,76.87c12.32,0,24.64,0,37-.05,1.46,0,3.93,1.66,4.1-1.73.17-3.23-2.14-2.73-4.09-2.73q-37,0-73.92,0c-1.57,0-4-1-4,2.16s2.32,2.27,4,2.27C320.44,282.87,332.77,282.84,345.09,282.85Zm23.16-56.05-1.61-.29c-7.27,9.55-9.49,20.8-10.59,32.43-.2,2.07.77,2.85,2.85,3.1,9,1.07,9.71.23,9.42-8.5C368,244.63,368.25,235.71,368.25,226.8Zm-45.33,21.68v5.24c0,8.84.53,9.32,9.39,8.25a4.18,4.18,0,0,1,.5,0c2,.05,2.62-1.21,2.41-2.91-1.3-10.5-2.79-21-8.93-30-.62-.92-.84-2.51-2.28-2.12s-.82,1.94-1,3C322,236.36,323.29,242.81,322.92,248.48Z"/><path class="cls-4" d="M212.08,251.94c-2.57,10-1.88,20.25-1.87,30.43,0,2.76-1,3.8-3.79,3.79-26.78-.11-53.55-.2-80.33-.09-5,0-4.32-2.77-3.88-5.87,1.51.26,1.78-1.54,3-1.79-1.16,3.92,1.17,4.47,4.22,4.46q36.89,0,73.75,0c3.4,0,4.54-1.35,3.78-4.54.95-4.13-2.35-1.95-3.39-1.95q-37.22-.18-74.42,0c-3.22,0-5.82-.15-4.93-4.46.67,2.66,2.28,3.49,5.07,3.41,7.66-.22,15.33-.08,23-.08,17,0,34-.13,51,0,5.24,0,3.47-3.6,3.79-6.22.38-3-.56-4.78-4.06-4.49a86.8,86.8,0,0,1-10.93.36c-19.3-.94-38.61.14-57.91-.28-4-.09-8.11-.11-10.89,3.63-2.54-4.32-2.31-9.3-3-14-2.26-16.34-6.9-31.68-16.68-45.22-1.67-2.32-4.89-5.44-2.67-7.79,2.68-2.84,5.65.57,8.11,2.38,13.32,9.81,23.83,21.8,29.24,37.76a12.71,12.71,0,0,0,2.59,4.2c-1-5.93-.08-11.74.25-17.57.12-2.07.1-4.08,2.22-5.17,2.48-1.27,3.55,1,5,2.19,4.9,4.13,6,10.13,7.7,15.82.32,1-.17,2.42,1.65,3.08.85-4.75,2.91-9,4.63-13.41.69-1.77,1.07-4.16,3.61-4.28s3.64,2.1,4.57,4a49.71,49.71,0,0,1,4.3,14.49c1.82-2.54,3.08-4.35,3.26-6.7.44-5.65,4.2-9.61,7.12-14a3.28,3.28,0,0,1,3.9-1.55,4,4,0,0,1,2.83,3.76c.12,3.48,0,7,0,10.45a53.26,53.26,0,0,0,.49,8.78c2.93-6.46,6.17-12.61,9.54-18.69,5.82-10.5,14.48-18.3,24.3-24.9,1.71-1.15,4-2.89,5.74-.7s.14,4.55-1.32,6.32A61.59,61.59,0,0,0,222.48,220c-2.94,6.17-4.32,12.84-6.31,19.3a41.87,41.87,0,0,1-2,5c-.18-1.13-.54-2.1-1.94-2.12,2-8.86,4.43-17.54,8.52-25.73,1.5-3,4.3-5.48,4.42-9.17a1.08,1.08,0,0,0,1.46-.66.46.46,0,0,0-.18-.37c-.65,0-1.18.26-1.3,1a4.46,4.46,0,0,0-1.4.48,79.75,79.75,0,0,0-28.65,43.61c-2.66,10.1-1.88,10.87,8.19,10.72,3.2-.05,4.61-1,5.22-4.42.87-4.85,1.07-9.92,3.45-14.43C212,246.11,212,249,212.08,251.94Zm-68.87-13.83c-1.1,6.48-2.2,13-3.44,20.2,2.6-.83,2.33-3.31,4.18-3.08.91,2.1-1.84,5.37.78,6.3,3.14,1.12,7.17,1.55,10.16-.32,2.45-1.54,1.41-4.88.84-7.34-1.51-6.43-3.18-12.84-5.12-19.16-1-3.19-2.5-6.32-6.15-8C144,230.77,143.61,234.44,143.21,238.11Zm-36.65-32.22a10.3,10.3,0,0,0,.63,2.32c9.85,13.7,14.14,29.4,16.36,45.81,1.31,9.62,1.43,7.79,9.57,7.94a4.17,4.17,0,0,1,.5,0c4.7.6,5.95-1.86,5.17-5.95a87.3,87.3,0,0,0-4.95-17.16C128.29,225.44,118.72,215.29,106.56,205.89Zm81.89,20.4a24.78,24.78,0,0,0-6.61,10.39c-1.76,5.57-3,11.21-4.19,16.9-1.91,8.81-2.12,8.77,7.08,8.44l1.5-.06c3-.1,4.06-1.54,3.4-4.56a38.26,38.26,0,0,1-.68-14.25A53.94,53.94,0,0,0,188.45,226.29Zm-21.69,4.27c-1.68.95-1.86,2.56-2.51,3.86-2.92,5.79-2.89,12.18-3.81,18.39-1.3,8.79-.68,9.46,8.28,9.3,3.57-.07,4.83-1.59,4.51-4.84s-.61-6.63-1.22-9.88C170.91,241.61,170,235.74,166.76,230.56Z"/><path class="cls-4" d="M549.85,240.18c.14,1.81.29,3.62.44,5.42,2.72-5,4.91-10.13,7.74-15A87.65,87.65,0,0,1,582.64,203c2.07-1.48,4.82-4.1,7.09-2.18,2.5,2.11,0,4.84-1.45,7a99.87,99.87,0,0,0-14.46,32.45c-3.1,13.31-5.65,26.66-4.94,40.39.21,4.06-.93,5.46-5.26,5.43q-39-.33-77.92-.06c-4.54,0-5.79-1.65-5.59-5.85.63-13.17-.1-26.3-4-38.93-3.87-12.41-7.42-25.1-16.22-35.32-1.18-1.37-2.31-3.17-.6-4.9s3.32-.48,4.89.56c12.23,8.08,22,18.37,28.65,31.54,1.55,3.08,3.28,6.06,5.26,9.7,2-4.13.82-7.78,1.1-11.27.14-1.83,0-3.67.26-5.48.18-1.48.57-3,2.25-3.59,1.85-.62,3.22.29,4.39,1.61,3.83,4.3,5.87,9.51,7.6,14.9.41,1.26.08,3.54,2.2,3.28,1.72-.21,1.73-2.33,2-3.67a33.15,33.15,0,0,1,3.35-9.83c2-3.68,4.59-3.76,6.41,0,2.28,4.75,4,9.75,6.24,15.2,2.36-3.5,2.76-7.6,4.18-11.22a30.35,30.35,0,0,1,5-8.47c2.84-3.38,5.1-2.68,6.84,1.93C547.44,229.26,547.43,237.19,549.85,240.18Zm-29.68,22-6.25-.08a5.13,5.13,0,0,0,.87-3.27c-.66-8.65-3.62-16.71-6.43-24.79a16.3,16.3,0,0,0-6.21-7.95c0,9.65-.23,18.25.12,26.83.13,3.06-2.12,6.15.05,9.16l-6.31,0c2.67-7.85-.41-15-3.32-21.87a72.77,72.77,0,0,0-21.22-28.35,15,15,0,0,0-7.89-6.48l6.15,9.41c1.51,3.47,3,6.91,4.51,10.4,4.94,11.77,7.19,24.23,9.28,36.73-2.39,1.81-.53,2,.91,2.43-2.11,1.93-.54,4.44-1,6.64-.74,3.33,1,4.28,4.15,4.27,24.24-.1,48.49-.21,72.74,0,4.58,0,5.34-1.8,5.74-5.75.52-5.28-3.73-3.84-6.07-5.12,0-.74,0-1.49,0-2.23,6.29.05,7.42-4.1,8.06-9.24a110,110,0,0,1,12.27-38.58c1.3-2.43,3.85-4.39,3.85-8.11a89.32,89.32,0,0,0-18.75,18.91c-6.65,8.82-9.7,19.05-13.34,29.11.06-2.54-.45-4.71-3.74-5.58-.14,3.12-.28,6-.41,8.84-1.73-2.22-.92-4.82-1-7.24-.12-7.88,0-15.76,0-23.83-2.88.5-3.51,2.59-4.2,4-4.51,9.16-6.1,19.23-8.62,29-.59,2.25,1.6,1.67,2.08,2.71-1.77-.16-3.8.87-5.18-1.11.81-10.75-.53-21-7-31.06-3.45,9.85-5.88,19.21-6.07,29.09C518,260.75,519.19,261.32,520.17,262.15Zm-30,16a12.51,12.51,0,0,0-1.48.2c-1.72.42-4.67-1-4.72,2.06s2.91,2.05,4.62,2.06q36.48.1,73,0c1.48,0,3.72.85,4.12-1.54.48-2.84-2-2.42-3.69-2.76-.42-2.57-2.46-1.77-3.95-1.77q-31.94-.06-63.86,0C492.73,276.37,490.69,275.59,490.2,278.11Z"/><path class="cls-5" d="M432.27,610.09c9.25,0,13.23,5.2,11.8,14.59q-2,13.47-4.28,26.92c-.19,1.11-.48,2.57-1.26,3.16-4.33,3.26-3.72,7.42-2.4,11.71.85,2.77.89,5.8-1.53,7.18-3.37,1.91-7.2.48-10.6-.82-2.82-1.07-2.55-4.13-1.91-6.09,1.53-4.64.81-7.84-3.61-10.42-1.83-1.06-2.42-3.48-1.8-5.84,1.11-4.27.7-8.66.34-12.91a14.15,14.15,0,0,0-5.93-10.44c-8.47-6.37-8.07-9.07,1.61-13C419.21,611.57,425.91,609.63,432.27,610.09Z"/><path class="cls-5" d="M163.17,551.25c.29,6.8-4.16,11.57-10.87,11.17-9.18-.54-15.76-6.49-19.14-16.94a155.2,155.2,0,0,1-4.56-19.22c-.83-4.33-1.68-8.33-5.35-11.37-2.36-1.95-1.83-5-.82-7.46s3.54-2.54,6-2.15c3.5.54,6.82,1.27,9.31,4.13.74.85,1.84,1.88,2.82,1.92,7.21.34,9.16,6,11,11.22a83,83,0,0,0,9.06,19.28A13.85,13.85,0,0,1,163.17,551.25ZM154,543.12c.07-6.38-4.25-10.06-11.48-9.76-3.28.13-5.88,4.66-5.82,10.12.07,5.26,3.74,8.71,9.34,8.74C151.34,552.25,154,549.25,154,543.12Z"/><path class="cls-3" d="M123.26,268.25c2.78-3.74,6.91-3.72,10.89-3.63,19.3.42,38.61-.66,57.91.28a86.8,86.8,0,0,0,10.93-.36c3.5-.29,4.44,1.44,4.06,4.49-.32,2.62,1.45,6.26-3.79,6.22-17-.13-34,0-51,0-7.67,0-15.34-.14-23,.08-2.79.08-4.4-.75-5.07-3.4.39-1.2-.52-1.84-1.11-2.63Z"/><path class="cls-5" d="M159.87,481.12c1.8.14,1.26,1.41,1,2.53-3.63,17.56,1,33.35,10.39,48.07,4.2,6.57,8.6,13,12.84,19.55a5.7,5.7,0,0,1-.75,7.74c-1.83,1.8-4.1,3-6.78,1.71a5.89,5.89,0,0,1-2.7-2.07c-6.1-12.16-13.1-24-16.77-37.16a111.3,111.3,0,0,1-3.8-20.94,31.06,31.06,0,0,1,4.19-17.66A2.73,2.73,0,0,1,159.87,481.12Z"/><path class="cls-5" d="M316.74,647.51c0,.41,0,1.57,0,2.73-.07,9-6.34,13.33-14.79,10.32-1.59-.57-3.15-1.32-3.73-3-2.38-7-5.09-14-6.9-21.17s.15-9,7.46-8.18c2.6.28,5.32-.09,7.81,1.14C313.64,632.8,317.62,634,316.74,647.51Z"/><path class="cls-5" d="M177.91,590.63c1.34-5.76.39-12.87,6.17-18.11,2.92-2.64,6.47-2.76,9.7-3a4.13,4.13,0,0,1,4.1,5.43c-1.81,6.56-3.65,13.12-6.91,19.13-2.06,3.82-5.49,7.43-9.65,6.66C176.89,599.94,178.33,594.89,177.91,590.63Z"/><path class="cls-5" d="M566.13,553.62c-7.26-.67-12.81-3.51-16.52-9.34-2.57-4-4.74-8.35-7.23-12.45-1.17-1.93-.77-2.79,1.27-3.66,4.82-2,9.74-1.14,11.54,4.14,3.11,9.11,9.57,13.29,18,15.76,1.32.39,3.51.8,3.35,2.42-.2,2-2.48,1.66-4,2C570.29,552.89,568,553.28,566.13,553.62Z"/><path class="cls-5" d="M250.47,439.41a22.31,22.31,0,0,0-10.85-.59c-2.24.38-4.06-1.16-2.3-4.18a16,16,0,0,1,13.21-8.37c3.55-.3,6.64,3.74,6.67,8.31C257.22,438,255.23,439.64,250.47,439.41Z"/><path class="cls-2" d="M123.09,269.3c.59.79,1.5,1.43,1.11,2.63-.89,4.3,1.71,4.46,4.93,4.45q37.22-.12,74.42,0c1,0,4.34-2.18,3.39,1.95l-81.75.05c-1.2.25-1.47,2-3,1.79C122.38,276.56,120.77,272.77,123.09,269.3Z"/><path class="cls-5" d="M308.18,671.62c-.24,2.85-.71,5.56-2.57,7.16-2.48,2.14-5.57,4-8.94,1.38a6.86,6.86,0,0,1-.93-9.78,28.75,28.75,0,0,1,2.79-2.84c1.66-1.61,3.25-3.51,6-2.34C306.05,665.86,308.18,669.91,308.18,671.62Z"/><path class="cls-5" d="M203.4,578.62c2,1,4.16,2.19,4.42,4.67a4.79,4.79,0,0,1-3.63,5.27c-2.26.37-3.6-1.7-3.78-4.2S200.64,579.73,203.4,578.62Z"/><path class="cls-5" d="M149.15,479.75c-1,2.18-1.67,4.67-4.85,4.67a2.72,2.72,0,0,1-2.89-3.17c.41-2.43.59-5.65,3.94-6C148.28,474.91,148.23,477.8,149.15,479.75Z"/><path class="cls-2" d="M286.09,202.33c-.52,1-1,2-1.57,3.07a1.56,1.56,0,0,0,0,.83l-3.05-.07c-1.35-1.48-3-3.38-1.22-5C282.16,199.32,284.39,200.54,286.09,202.33Z"/><path class="cls-2" d="M549.85,240.18c-2.42-3-2.41-10.92,0-13.87Q549.86,233.24,549.85,240.18Z"/><path class="cls-2" d="M212.08,251.94c-.05-2.91-.11-5.83-.17-8.74l.27-1c1.4,0,1.76,1,1.94,2.12A16.65,16.65,0,0,1,212.08,251.94Z"/><path class="cls-1" d="M310.91,541.75c-.14,7.2,4,11,5.93,15.69.94,2.35,3.42,4.79.44,7s-5.8.39-7.77-2c-2.37-2.9-4.32-3.44-7.33-.69-2.34,2.13-5.12,1.24-5.78-1.81-1.14-5.26-3.5-10.48-1.72-16.06a2.83,2.83,0,0,0-.06-2.38c-4.64-8.38-1.74-17.78,6.9-23.41,2.64-1.73,4.56-1.59,6.41.77,3.26,4.17,6.71,8,11.55,10.57,1.79,1,4.08,3.3,2.73,6.21s-3.47,3.41-6.6,2.7C312.12,537.55,310.89,539.17,310.91,541.75Z"/><path class="cls-1" d="M228.17,500.68c0,2.25.09,3.74,0,5.22s0,3.36-2.13,3.26c-2.8-.15-2-2.79-1.53-3.8,1.22-2.95.3-5.8.32-8.66,0-3.3-1.79-5.34-4.86-6.66-6.24-2.7-6.7-5.05-1.55-9.47,3.24-2.78,6-5.52,6.85-9.9.56-2.9,3.1-2.34,5.23-2.5,2.58-.2,3.2,1.57,3.41,3.37.56,4.88,3.43,6.95,8,6.91a4.77,4.77,0,0,1,4.8,2.85c.88,2.08-.5,3.72-2,5.22-7.6,7.84-7.76,9.2-2.6,19.07.69,1.32,1.26,2.71,1.9,4.06.95,2,2.12,4.28,0,5.89-1.93,1.48-4.38.09-5.88-1.09-2.4-1.9-4.91-3.92-5.66-7.32C232,504.78,231.18,502.38,228.17,500.68Z"/><path class="cls-1" d="M373,577.34c0,5.67-2.6,7.42-6.48,5.7a9,9,0,0,1-3.7-2.47c-2.24-3.08-4.53-4-8.33-2.45-2.72,1.14-5.21,0-5.48-3.66a34.33,34.33,0,0,0-1.1-7.31c-.82-2.72-.72-5.75-3.84-7.71a4.06,4.06,0,0,1-.36-6.85c2.92-2.38,4.69-5.52,6.91-8.38,1.52-2,3.64-3.51,5.92-2.36,2.43,1.23.72,3.35,0,5.16-1.6,4.11.36,6.83,4.84,6.65a3,3,0,0,1,2.86,1.5C369.17,562.3,370.71,570.69,373,577.34Z"/><path class="cls-1" d="M351.13,526.19c-4.13-.66-8.43-1-12.39-2.82-5.36-2.42-6.62-5.35-4.9-11,2.46-8.07,2.46-8.07-4.31-13.11-3.1-2.3-3.28-5.32-.27-7.81s6.91-3.78,7.94-8.6c.62-2.85,6-2.74,7.18.27,1.59,4.19,4.64,6.62,7.95,9.09,1.69,1.26,2.78,3.41,2.35,5.19s-2.93,1.7-4.71,1.67c-3.09,0-3.7,1.65-4,4.41-.81,7.56,3.69,12.72,7.58,18.22.72,1,2.51,1.68,1.76,3.22S352.66,525.84,351.13,526.19Z"/><path class="cls-1" d="M468.15,586.36a6,6,0,0,1,1.44-4.93c3.37-3.69,2.53-7.31.24-10.83-3.1-4.78-.32-8.61,1.89-12.32,1.24-2.07,4.06-2.13,6.4-1.93,3.64.3,10.87,10,10.24,13.54-.09.47-.25,1.19-.56,1.32-5.7,2.3-3.21,6-2,9.8,1.71,5.4.23,7-5.82,6.6-1.72-.1-1.83,1.09-2.36,2-1,1.78-1.34,4.33-4.46,3.54A7.29,7.29,0,0,1,468.15,586.36Z"/><path class="cls-3" d="M345.11,275.23c-12.16,0-24.32-.1-36.48.06-3.37,0-5-.78-4.57-4.42.31-3-.9-6.42,4.34-6.37,19.62.19,39.26.12,58.89.13,4.82,0,9.64.08,14.46-.07s4.4,3.16,4.6,6.39c.23,3.67-1.48,4.4-4.76,4.35C369.43,275.15,357.27,275.24,345.11,275.23Z"/><path class="cls-3" d="M405.71,206a174.21,174.21,0,0,0-9.47,18.43c-4.42,9.76-5.6,20.39-8,30.69-.55,2.41-.36,5.75-2.79,6.46a17,17,0,0,1-11.26-.43c-1.88-.78-1-2.91-.8-4.48,1.55-11.2,6.54-21,12.27-30.55C390.72,217.68,398.06,211.75,405.71,206Z"/><path class="cls-3" d="M290.66,210.08c9.31,8.54,17.36,18,22.61,29.68,2.68,5.94,3.79,12.31,4.79,18.68.37,2.31-.87,3.45-3.07,3.51-2.82.08-5.65,0-8.47,0-3.29,0-2.89-2.83-3.23-4.68-1.83-10-3.58-20-7.12-29.61-1.76-4.77-4.19-9.28-6.31-13.9C290.71,212.67,288,210.8,290.66,210.08Z"/><path class="cls-3" d="M345.09,282.85c-12.32,0-24.65,0-37,0-1.64,0-4,.78-4-2.27s2.41-2.15,4-2.16q37-.09,73.92,0c1.95,0,4.26-.5,4.09,2.73-.17,3.39-2.64,1.72-4.1,1.73C369.73,282.89,357.41,282.85,345.09,282.85Z"/><path class="cls-3" d="M368.25,226.8c0,8.91-.23,17.83.07,26.74.29,8.73-.47,9.57-9.42,8.5-2.08-.25-3-1-2.85-3.1,1.1-11.63,3.32-22.88,10.59-32.43Z"/><path class="cls-3" d="M322.92,248.48c.37-5.67-.95-12.12.09-18.55.18-1.08-.41-2.63,1-3s1.66,1.2,2.28,2.12c6.14,9.06,7.63,19.51,8.93,30,.21,1.7-.38,3-2.41,2.91a4.18,4.18,0,0,0-.5,0c-8.86,1.07-9.4.59-9.39-8.25Z"/><path class="cls-3" d="M338.17,254.46c2-5.29,2.53-11,3.79-16.43a18.77,18.77,0,0,1,3.38-7.43c5.7,8.68,6.58,18.29,7.06,28,.13,2.56-.88,3.69-3.52,3.38a15.23,15.23,0,0,0-4,.05c-4.64.7-7-1.15-6.85-5.91C338.08,255.57,338.13,255,338.17,254.46Z"/><path class="cls-5" d="M290.66,210.08c-2.65.72,0,2.59-.8,3.69l-5.38-7.54a1.56,1.56,0,0,1,0-.83A10.12,10.12,0,0,1,290.66,210.08Z"/><path class="cls-2" d="M338.17,254.46c0,.56-.09,1.11-.13,1.67-3.85-1.88-1-4.82-1.34-7.26C338.77,250.39,337.69,252.61,338.17,254.46Z"/><path class="cls-3" d="M212.18,242.17l-.27,1c-2.38,4.51-2.58,9.58-3.45,14.43-.61,3.38-2,4.37-5.22,4.42-10.07.15-10.85-.62-8.19-10.72a79.75,79.75,0,0,1,28.65-43.61,4.46,4.46,0,0,1,1.4-.48l0,0c-.12,3.69-2.92,6.14-4.42,9.17C216.61,224.63,214.16,233.31,212.18,242.17Z"/><path class="cls-3" d="M106.56,205.89c12.16,9.4,21.73,19.55,27.28,33A87.3,87.3,0,0,1,138.79,256c.78,4.09-.47,6.55-5.17,5.95a4.17,4.17,0,0,0-.5,0c-8.14-.15-8.26,1.68-9.57-7.94-2.22-16.41-6.51-32.11-16.36-45.81A10.3,10.3,0,0,1,106.56,205.89Z"/><path class="cls-3" d="M125.19,278.41l81.75-.05c.76,3.19-.38,4.55-3.78,4.54q-36.87-.11-73.75,0C126.36,282.88,124,282.33,125.19,278.41Z"/><path class="cls-3" d="M188.45,226.29a53.94,53.94,0,0,1,.5,16.86,38.26,38.26,0,0,0,.68,14.25c.66,3-.36,4.46-3.4,4.56l-1.5.06c-9.2.33-9,.37-7.08-8.44,1.23-5.69,2.43-11.33,4.19-16.9A24.78,24.78,0,0,1,188.45,226.29Z"/><path class="cls-3" d="M143.21,238.11c.4-3.67.81-7.34,1.25-11.36,3.65,1.64,5.16,4.77,6.15,8,1.94,6.32,3.61,12.73,5.12,19.16.57,2.46,1.61,5.8-.84,7.34-3,1.87-7,1.44-10.16.32-2.62-.93.13-4.2-.78-6.3C143.86,249.52,145,243.75,143.21,238.11Z"/><path class="cls-3" d="M166.76,230.56c3.23,5.18,4.15,11.05,5.25,16.83.61,3.25.89,6.57,1.22,9.88s-.94,4.77-4.51,4.84c-9,.16-9.58-.51-8.28-9.3.92-6.21.89-12.6,3.81-18.39C164.9,233.12,165.08,231.51,166.76,230.56Z"/><path class="cls-2" d="M143.21,238.11c1.79,5.64.65,11.41.74,17.12-1.85-.23-1.58,2.25-4.18,3.08C141,251.07,142.11,244.59,143.21,238.11Z"/><path class="cls-3" d="M225.1,207.24c.12-.74.65-1,1.3-1a.46.46,0,0,1,.18.37,1.08,1.08,0,0,1-1.46.66Z"/><path class="cls-3" d="M560,264.41c2.35,1.28,6.6-.16,6.08,5.12-.4,4-1.16,5.79-5.74,5.75-24.25-.22-48.5-.11-72.74,0-3.19,0-4.89-.94-4.15-4.27.49-2.2-1.08-4.71,1-6.64Z"/><path class="cls-3" d="M552.09,254.27c3.64-10.06,6.69-20.29,13.34-29.11a89.32,89.32,0,0,1,18.75-18.91c0,3.72-2.55,5.68-3.85,8.11a110,110,0,0,0-12.27,38.58c-.64,5.14-1.77,9.29-8.06,9.24C551.46,262,551.46,262,552.09,254.27Z"/><path class="cls-3" d="M483.53,261.93c-2.1-12.5-4.35-25-9.29-36.73-1.46-3.49-3-6.93-4.51-10.39.19-1.21.33-2.45,1.74-2.94a72.77,72.77,0,0,1,21.22,28.35c2.91,6.84,6,14,3.32,21.87Z"/><path class="cls-3" d="M562,278.13c1.68.34,4.17-.08,3.69,2.76-.4,2.39-2.64,1.54-4.12,1.54q-36.5.09-73,0c-1.71,0-4.66,1.05-4.62-2.06s3-1.64,4.72-2.06a12.51,12.51,0,0,1,1.48-.2Z"/><path class="cls-3" d="M502.32,262.05c-2.17-3,.08-6.1-.05-9.16-.35-8.58-.12-17.18-.12-26.83a16.3,16.3,0,0,1,6.21,7.95c2.81,8.08,5.77,16.14,6.43,24.79a5.13,5.13,0,0,1-.87,3.27Z"/><path class="cls-3" d="M536.2,262.17c-.48-1-2.67-.46-2.08-2.71,2.52-9.78,4.11-19.85,8.62-29,.69-1.4,1.32-3.49,4.2-4,0,8.07-.08,15.95,0,23.83,0,2.42-.77,5,1,7.24.41,3.25-.49,5-4.28,4.57A54.71,54.71,0,0,0,536.2,262.17Z"/><path class="cls-3" d="M520.17,262.15c-1-.83-2.22-1.4-2.19-3.06.19-9.88,2.62-19.24,6.07-29.09,6.44,10,7.78,20.31,7,31.06C527.54,262.79,523.79,261.82,520.17,262.15Z"/><path class="cls-2" d="M520.17,262.15c3.62-.33,7.37.64,10.85-1.09,1.38,2,3.41.95,5.18,1.11a54.71,54.71,0,0,1,7.46-.07c3.79.47,4.69-1.32,4.28-4.57.13-2.86.27-5.72.41-8.84,3.29.87,3.8,3,3.74,5.58-.63,7.69-.63,7.69,7.91,7.91,0,.74,0,1.49,0,2.23l-75.53-.05c-1.43-.39-3.29-.62-.89-2.43l12.48.16,6.31,0,11.6,0Z"/><path class="cls-2" d="M562,278.13l-71.82,0c.49-2.52,2.53-1.74,4-1.74q31.94-.08,63.86,0C559.56,276.36,561.6,275.56,562,278.13Z"/><path class="cls-5" d="M471.47,211.87c-1.41.49-1.55,1.73-1.74,2.94-1.8-2.76-3.59-5.51-6.15-9.42A15,15,0,0,1,471.47,211.87Z"/><path class="cls-1" d="M154,543.12c-.07,6.13-2.7,9.13-8,9.1-5.6,0-9.27-3.48-9.34-8.74-.06-5.46,2.54-10,5.82-10.12C149.79,533.06,154.11,536.74,154,543.12Z"/></g></g></svg>